<svg width="320" height="64" viewBox="0 0 320 64" fill="none" xmlns="http://www.w3.org/2000/svg">
<path fill-rule="evenodd" clip-rule="evenodd" d="M0 32.3482L0.001544 32.1879L0.00472794 32.0275L0.00956001 31.8671L0.016032 31.7067L0.02416 31.5463L0.0339279 31.3859L0.045352 31.2256L0.058416 31.0653L0.0731359 30.905L0.0895041 30.7448L0.10752 30.5848L0.127176 30.4248L0.148488 30.265L0.171448 30.1053L0.196048 29.9458L0.222296 29.7865L0.250192 29.6273L0.27972 29.4684L0.310896 29.3097L0.343712 29.1512L0.378168 28.993L0.414248 28.835L0.451976 28.6774L0.49132 28.5201L0.532304 28.3631L0.574904 28.2064L0.619136 28.0501L0.664984 27.8942L0.712448 27.7386L0.76152 27.5835L0.812208 27.4288L0.864504 27.2745L0.9184 27.1206L0.973888 26.9673L1.03098 26.8144L1.08965 26.662L1.14991 26.5102L1.21175 26.3588L1.27517 26.2081L1.34015 26.0578L1.4067 25.9082L1.47482 25.7591L1.54448 25.6107L1.6157 25.4629L1.68846 25.3157L1.76275 25.1692L1.83858 25.0234L1.91593 24.8782L1.99479 24.7338L2.07517 24.59L2.15706 24.447L2.24043 24.3047L2.3253 24.1632L2.41166 24.0225L2.49949 23.8826L2.58878 23.7434L2.67954 23.6052L2.77176 23.4677L2.86542 23.3311L2.96051 23.1954L3.05703 23.0605L3.15497 22.9266L3.25432 22.7934L3.35507 22.6614L3.45722 22.5302L3.56075 22.3999L3.66566 22.2706L3.77193 22.1423L3.87955 22.015L3.98853 21.8887L4.09884 21.7634L4.21047 21.6391L4.32342 21.5159L4.43769 21.3938L4.55324 21.2727L4.67008 21.1527L4.78819 21.0338L4.90757 20.9161L5.0282 20.7994L5.15007 20.6839L5.27318 20.5695L5.3975 20.4563L5.52302 20.3443L5.64975 20.2335L5.77766 20.1239L5.90674 20.0154L6.03698 19.9082L6.16838 19.8023L6.3009 19.6976L6.43456 19.5941L6.56928 19.4919L6.7052 19.391L6.84216 19.2914L6.98016 19.1931L7.1192 19.0962L7.25936 19.0005L7.40048 18.9062L7.54264 18.8132L7.68584 18.7216L7.83008 18.6314L7.9752 18.5425L8.12136 18.455L8.2684 18.3689L8.4164 18.2843L8.56536 18.201L8.7152 18.1192L8.86592 18.0388L9.01752 17.9599L9.17 17.8824L9.32336 17.8064L9.47752 17.7319L9.63256 17.6588L9.78832 17.5873L9.94496 17.5172L10.1023 17.4486L10.2605 17.3816L10.4194 17.3161L10.579 17.2521L10.7393 17.1897L10.9003 17.1288L11.062 17.0695L11.2244 17.0117L11.3874 16.9555L11.5511 16.9009L11.7154 16.8479L11.8802 16.7964L12.0458 16.7466L12.2118 16.6983L12.3784 16.6517L12.5456 16.6067L12.7133 16.5633L12.8814 16.5215L13.0501 16.4814L13.2193 16.4429L13.3889 16.406L13.5589 16.3708L13.7294 16.3373L13.9002 16.3054L14.0715 16.2751L14.2432 16.2466L14.4152 16.2197L14.5875 16.1945L14.7602 16.171L14.9331 16.1491L15.1064 16.1289L15.2799 16.1105L15.4537 16.0937L15.6277 16.0786L15.8019 16.0652L15.9763 16.0536L16.9142 16L16.9678 20.5189L16.9984 20.5186L17.1279 20.5184L17.2574 20.5195L17.387 20.5218L17.5166 20.5255L17.6462 20.5304L17.7759 20.5366L17.9056 20.544L18.0353 20.5528L18.1649 20.5628L18.2946 20.5741L18.4241 20.5867L18.5536 20.6005L18.683 20.6156L18.8123 20.6321L18.9415 20.6497L19.0706 20.6687L19.1996 20.689L19.3285 20.7105L19.4571 20.7333L19.5857 20.7573L19.714 20.7827L19.8421 20.8093L19.9701 20.8372L20.0978 20.8664L20.2252 20.8968L20.3525 20.9285L20.4794 20.9614L20.6061 20.9957L20.7325 21.0312L20.8586 21.0679L20.9844 21.1059L21.1098 21.1452L21.235 21.1857L21.3598 21.2274L21.4842 21.2704L21.6082 21.3147L21.7318 21.3602L21.855 21.4069L21.9778 21.4548L22.1002 21.504L22.2222 21.5544L22.3436 21.6061L22.4646 21.6589L22.5852 21.713L22.7052 21.7683L22.8247 21.8248L22.9438 21.8824L23.0622 21.9413L23.1802 22.0014L23.2975 22.0627L23.4143 22.1251L23.5306 22.1888L23.6462 22.2536L23.7612 22.3195L23.8756 22.3867L23.9894 22.455L24.1025 22.5244L24.215 22.595L24.3267 22.6667L24.4378 22.7395L24.5482 22.8135L24.658 22.8886L24.767 22.9648L24.8753 23.0422L24.9828 23.1206L25.0895 23.2001L25.1956 23.2807L25.3008 23.3624L25.4053 23.4452L25.5089 23.529L25.6118 23.6138L25.7138 23.6998L25.815 23.7868L25.9154 23.8748L26.0149 23.9638L26.1134 24.0539L26.2112 24.145L26.3081 24.2371L26.4041 24.3302L26.4991 24.4242L26.5933 24.5193L26.6865 24.6154L26.7788 24.7123L26.8701 24.8102L26.9605 24.9091L27.0498 25.009L27.1382 25.1097L27.2257 25.2114L27.3121 25.3139L27.3975 25.4174L27.4819 25.5218L27.5653 25.627L27.6476 25.733L27.7289 25.84L27.8091 25.9478L27.8882 26.0565L27.9663 26.166L28.0433 26.2763L28.1192 26.3874L28.194 26.4993L28.2677 26.612L28.3402 26.7255L28.4116 26.8398L28.4819 26.9547L28.551 27.0705L28.619 27.187L28.6858 27.3042L28.7515 27.4221L28.816 27.5407L28.8793 27.66L28.9414 27.78L29.0022 27.9006L29.0619 28.0219L29.1204 28.1439L29.1777 28.2665L29.2337 28.3897L29.2885 28.5135L29.342 28.6379L29.3942 28.763L29.4453 28.8885L29.495 29.0146L29.5435 29.1413L29.5907 29.2686L29.6366 29.3962L29.6813 29.5246L29.7246 29.6533L29.7667 29.7826L29.8074 29.9122L29.8469 30.0424L29.885 30.173L29.9218 30.3041L29.9572 30.4356L29.9914 30.5675L30.0241 30.6998L30.0556 30.8325L30.0857 30.9655L30.1144 31.099L30.1418 31.2326L30.1678 31.3668L30.1925 31.5012L30.2158 31.6359L30.2378 31.7709L30.2583 31.9062L30.2775 32.0418L30.2953 32.1775L30.3117 32.3136L30.3267 32.4498L30.3403 32.5863L30.3526 32.723L30.3634 32.8598L30.3729 32.9969L30.3809 33.1341L30.3875 33.2714L30.3928 33.4089L30.3966 33.5464L30.399 33.6841L30.4 33.8218L30.3996 33.9597L30.3978 34.0976L30.3945 34.2356L30.3898 34.3735L30.3838 34.5115L30.3763 34.6495L30.3674 34.7875L30.357 34.9255L30.3453 35.0634L30.3321 35.2014L30.3175 35.3392L30.3014 35.4769L30.284 35.6146L30.2652 35.7521L30.2449 35.8895L30.2232 36.0268L30.2001 36.1639L30.1755 36.3009L30.1496 36.4377L30.1222 36.5743L30.0934 36.7107L30.0632 36.8469L30.0316 36.9829L29.9986 37.1186L29.9642 37.254L29.9283 37.3891L29.8911 37.524L29.8525 37.6586L29.8125 37.7928L29.771 37.9268L29.7282 38.0603L29.684 38.1936L29.6384 38.3264L29.5914 38.4589L29.543 38.591L29.4933 38.7226L29.4422 38.8538L29.3897 38.9846L29.3358 39.1149L29.2806 39.2447L29.2241 39.3742L29.1662 39.503L29.1069 39.6314L29.0462 39.7592L28.9843 39.8865L28.921 40.0133L28.8564 40.1394L28.7904 40.2651L28.7232 40.3901L28.6546 40.5146L28.5847 40.6383L28.5135 40.7615L28.441 40.8841L28.3673 41.0059L28.2922 41.1272L28.2158 41.2477L28.1382 41.3675L28.0594 41.4866L27.9793 41.605L27.8979 41.7227L27.8153 41.8397L27.7314 41.9558L27.6463 42.0713L27.56 42.1859L27.4725 42.2998L27.3838 42.4127L27.2938 42.525L27.2027 42.6363L27.1104 42.7468L27.0169 42.8565L26.9222 42.9653L26.8264 43.0732L26.7294 43.1802L26.6314 43.2864L26.5322 43.3916L26.4318 43.4959L26.3303 43.5992L26.2277 43.7016L26.124 43.803L26.0193 43.9035L25.9134 44.003L25.8066 44.1015L25.6986 44.199L25.5895 44.2954L25.4795 44.3909L25.3684 44.4854L25.2563 44.5787L25.1432 44.671L25.0291 44.7622L24.914 44.8524L24.7979 44.9414L24.6809 45.0294L24.5629 45.1162L24.444 45.202L24.3241 45.2866L24.2033 45.3701L24.0816 45.4524L23.959 45.5335L23.8355 45.6135L23.7112 45.6924L23.586 45.77L23.4599 45.8465L23.333 45.9217L23.2052 45.9958L23.0767 46.0686L22.9473 46.1401L22.8172 46.2105L22.6862 46.2795L22.5546 46.3474L22.4221 46.414L22.2889 46.4793L22.155 46.5433L22.0203 46.6061L21.885 46.6675L21.749 46.7277L21.6122 46.7865L21.4749 46.844L21.3369 46.9002L21.1982 46.9551L21.059 47.0086L20.919 47.0609L20.7786 47.1117L20.6374 47.1612L20.4958 47.2093L20.3537 47.2561L20.2109 47.3014L20.0676 47.3454L19.9238 47.3881L19.7796 47.4293L19.6348 47.4691L19.4896 47.5076L19.3438 47.5446L19.1978 47.5802L19.0512 47.6144L18.9042 47.6471L18.7568 47.6785L18.609 47.7084L18.4609 47.7369L18.3124 47.7639L18.1636 47.7894L18.0144 47.8136L17.865 47.8363L17.7151 47.8575L17.5651 47.8773L17.4148 47.8956L17.2642 47.9124L17.1134 47.9278L16.9623 47.9417L16.8111 47.9541L16.6597 47.965L16.5081 47.9745L16.3562 47.9825L16.2043 47.989L16.0523 47.9939L15.9001 47.9974L15.7478 47.9994L15.5954 48L15.443 47.999L15.2906 47.9966L15.138 47.9926L14.9854 47.9871L14.8329 47.9802L14.6803 47.9718L14.5278 47.9618L14.3753 47.9503L14.2229 47.9374L14.0705 47.9229L13.9182 47.907L13.766 47.8895L13.6139 47.8706L13.4619 47.8501L13.3102 47.8281L13.1585 47.8046L13.007 47.7797L12.8558 47.7533L12.7046 47.7253L12.5538 47.6958L12.4032 47.665L12.2529 47.6325L12.1027 47.5986L11.953 47.5632L11.8034 47.5263L11.6542 47.4879L11.5054 47.4481L11.3569 47.4068L11.2087 47.364L11.0609 47.3198L10.9135 47.274L10.7666 47.2268L10.62 47.1782L10.4738 47.128L10.3282 47.0764L10.183 47.0234L10.0382 46.969L9.894 46.913L9.75032 46.8557L9.60712 46.7969L9.46448 46.7366L9.3224 46.675L9.18088 46.612L9.03992 46.5475L8.8996 46.4816L8.75992 46.4143L8.62088 46.3456L8.4824 46.2755L8.34464 46.2041L8.2076 46.1312L8.07112 46.057L7.93544 45.9814L7.80048 45.9045L7.66624 45.8262L7.53272 45.7465L7.4 45.6655L7.268 45.5831L7.1368 45.4995L7.00648 45.4145L6.87688 45.3282L6.74816 45.2406L6.62032 45.1517L6.49328 45.0615L6.36713 44.97L6.24186 44.8773L6.1175 44.7832L5.99405 44.6879L5.87152 44.5914L5.74993 44.4936L5.6293 44.3946L5.50962 44.2944L5.39093 44.193L5.27322 44.0903L5.15653 43.9864L5.04085 43.8814L4.9262 43.7752L4.81258 43.6678L4.70003 43.5593L4.58854 43.4495L4.47813 43.3387L4.36881 43.2268L4.26059 43.1137L4.15349 42.9995L4.04751 42.8842L3.94268 42.7678L3.83899 42.6504L3.73646 42.5319L3.63511 42.4123L3.53494 42.2918L3.43598 42.1701L3.33821 42.0474L3.24166 41.9238L3.14634 41.7991L3.05226 41.6734L2.95943 41.5468L2.86786 41.4192L2.77756 41.2906L2.68854 41.1612L2.60082 41.0308L2.51439 40.8994L2.42928 40.7673L2.34548 40.6342L2.26302 40.5002L2.1819 40.3654L2.10212 40.2296L2.02371 40.0931L1.94666 39.9558L1.87099 39.8176L1.79671 39.6786L1.72382 39.5388L1.65234 39.3983L1.58226 39.257L1.51361 39.115L1.44638 38.9722L1.38059 38.8288L1.31625 38.6846L1.25335 38.5398L1.19192 38.3942L1.13196 38.248L1.07346 38.1011L1.01646 37.9536L0.960944 37.8055L0.90692 37.6568L0.8544 37.5075L0.803384 37.3577L0.753888 37.2072L0.70592 37.0562L0.659472 36.9047L0.614568 36.7527L0.5712 36.6002L0.529376 36.4471L0.489104 36.2937L0.450392 36.1398L0.41324 35.9854L0.377664 35.8306L0.343656 35.6753L0.311224 35.5197L0.280376 35.3637L0.251112 35.2074L0.22344 35.0506L0.197368 34.8936L0.172888 34.7362L0.150016 34.5786L0.128752 34.4206L0.109104 34.2623L0.0910641 34.1038L0.0746401 33.9451L0.05984 33.7862L0.046664 33.627L0.035112 33.4677L0.0251921 33.3082L0.0169041 33.1485L0.010248 32.9886L0.00522404 32.8287L0.00184002 32.6686L0.000103951 32.5085L0 32.3482ZM15.5025 20.6136L15.466 17.5334L15.4314 17.5368L15.2723 17.5537L15.1137 17.5722L14.9551 17.5922L14.7972 17.6137L14.6394 17.6368L14.4818 17.6614L14.3247 17.6876L14.1678 17.7153L14.0116 17.7444L13.8552 17.7752L13.6999 17.8074L13.5444 17.8412L13.3897 17.8764L13.2351 17.9132L13.0813 17.9513L12.9278 17.9911L12.7748 18.0323L12.6222 18.075L12.4704 18.1191L12.3188 18.1648L12.168 18.2118L12.0176 18.2604L11.868 18.3103L11.7186 18.3618L11.5701 18.4146L11.4222 18.4689L11.2748 18.5246L11.1282 18.5817L10.9823 18.6402L10.8369 18.7002L10.6922 18.7615L10.5482 18.8242L10.405 18.8883L10.2625 18.9537L10.1208 19.0205L9.9796 19.0887L9.83944 19.1582L9.7 19.2291L9.56136 19.3012L9.42352 19.3748L9.28664 19.4495L9.15032 19.5257L9.01488 19.6031L8.88064 19.6817L8.7468 19.7618L8.61424 19.843L8.48256 19.9254L8.35152 20.0092L8.22152 20.0943L8.09248 20.1805L7.96464 20.2678L7.83728 20.3566L7.7112 20.4464L7.58608 20.5374L7.46184 20.6296L7.33872 20.723L7.21672 20.8175L7.09544 20.9133L6.97552 21.01L6.85648 21.108L6.73856 21.207L6.62168 21.3072L6.506 21.4084L6.39118 21.5108L6.27768 21.6142L6.16514 21.7187L6.05391 21.8241L5.9437 21.9307L5.8347 22.0382L5.72682 22.1468L5.61999 22.2565L5.51456 22.367L5.41031 22.4784L5.30699 22.5911L5.2051 22.7046L5.10446 22.8188L5.00486 22.9342L4.9067 23.0504L4.80962 23.1676L4.71386 23.2856L4.61934 23.4046L4.52606 23.5243L4.43416 23.6449L4.34346 23.7663L4.254 23.8887L4.16598 24.0117L4.07914 24.1357L3.99369 24.2603L3.90955 24.3858L3.82668 24.512L3.74521 24.639L3.66507 24.7666L3.58628 24.895L3.5089 25.024L3.43278 25.1538L3.35804 25.2844L3.28477 25.4154L3.21281 25.5472L3.14222 25.6797L3.07307 25.8127L3.00528 25.9464L2.93894 26.0806L2.87399 26.2154L2.81047 26.3507L2.74834 26.4867L2.68767 26.6231L2.62838 26.7602L2.57054 26.8977L2.51418 27.0356L2.45923 27.1741L2.40572 27.313L2.35368 27.4524L2.30308 27.5922L2.25398 27.7324L2.20629 27.8731L2.16008 28.0142L2.11535 28.1556L2.0721 28.2973L2.0303 28.4395L1.99 28.5819L1.95118 28.7247L1.91382 28.8678L1.87796 29.0112L1.84359 29.1548L1.81071 29.2987L1.77932 29.4429L1.74942 29.5873L1.72102 29.7318L1.69411 29.8766L1.6687 30.0216L1.64479 30.1668L1.62238 30.3121L1.60147 30.4575L1.58206 30.6031L1.56415 30.7488L1.54774 30.8946L1.53284 31.0405L1.51944 31.1864L1.50754 31.3323L1.49714 31.4784L1.48824 31.6245L1.48084 31.7705L1.47494 31.9166L1.47054 32.0626L1.46765 32.2086L1.46624 32.3545L1.46634 32.5004L1.46792 32.6462L1.471 32.7919L1.47557 32.9375L1.48162 33.083L1.48918 33.2283L1.4982 33.3734L1.50871 33.5185L1.5207 33.6633L1.53418 33.8079L1.54911 33.9524L1.56553 34.0966L1.58341 34.2406L1.60275 34.3842L1.62356 34.5277L1.64583 34.6709L1.66954 34.8137L1.69472 34.9562L1.72134 35.0985L1.74939 35.2403L1.77889 35.3819L1.80982 35.523L1.84218 35.6638L1.87596 35.8042L1.91116 35.9442L1.94778 36.0838L1.9858 36.2229L2.02524 36.3616L2.06607 36.4998L2.1083 36.6376L2.15191 36.7749L2.1969 36.9116L2.24326 37.0478L2.29101 37.1835L2.34011 37.3187L2.39056 37.4533L2.44239 37.5874L2.49554 37.7208L2.55002 37.8537L2.60586 37.9859L2.663 38.1175L2.72147 38.2486L2.78125 38.379L2.84233 38.5086L2.9047 38.6377L2.96836 38.766L3.0333 38.8937L3.09951 39.0206L3.16698 39.1469L3.23572 39.2724L3.3057 39.3971L3.37691 39.5211L3.44936 39.6444L3.52304 39.7668L3.5979 39.8885L3.67401 40.0094L3.75128 40.1294L3.82976 40.2486L3.90942 40.367L3.99022 40.4846L4.07219 40.6013L4.15534 40.7171L4.23959 40.8321L4.32501 40.9462L4.4115 41.0593L4.49916 41.1715L4.58786 41.2828L4.67769 41.3932L4.76862 41.5027L4.86056 41.6112L4.9536 41.7187L5.04767 41.8253L5.14282 41.9309L5.23896 42.0354L5.3361 42.139L5.43428 42.2416L5.53344 42.3432L5.63362 42.4438L5.73474 42.5432L5.83685 42.6417L5.93987 42.739L6.04385 42.8354L6.14878 42.9307L6.25462 43.0249L6.3613 43.1179L6.46896 43.2099L6.57752 43.3008L6.6868 43.3906L6.79712 43.4793L6.90816 43.5667L7.02008 43.6531L7.1328 43.7384L7.2464 43.8225L7.36072 43.9054L7.47584 43.9871L7.59168 44.0677L7.7084 44.1471L7.82576 44.2253L7.944 44.3023L8.0628 44.3782L8.1824 44.4527L8.30272 44.5262L8.4236 44.5983L8.54528 44.6693L8.66752 44.739L8.79048 44.8074L8.914 44.8746L9.03824 44.9406L9.16296 45.0054L9.28832 45.0689L9.41432 45.131L9.54088 45.192L9.66792 45.2517L9.79552 45.3101L9.9236 45.3671L10.0523 45.423L10.1814 45.4774L10.3111 45.5307L10.4412 45.5826L10.5718 45.6332L10.7028 45.6826L10.8342 45.7306L10.966 45.7772L11.0983 45.8226L11.231 45.8666L11.364 45.9094L11.4973 45.9507L11.6311 45.9908L11.7651 46.0295L11.8995 46.0669L12.0342 46.103L12.1692 46.1377L12.3045 46.171L12.4399 46.203L12.5758 46.2338L12.7118 46.263L12.8479 46.291L12.9844 46.3177L13.121 46.343L13.2578 46.3669L13.3948 46.3894L13.5319 46.4106L13.6692 46.4305L13.8066 46.449L13.9441 46.4662L14.0817 46.4819L14.2194 46.4963L14.3571 46.5094L14.495 46.5211L14.6328 46.5315L14.7706 46.5405L14.9086 46.5482L15.0464 46.5544L15.1842 46.5594L15.3221 46.563L15.4599 46.5651L15.5976 46.566L15.7353 46.5655L15.8729 46.5637L16.0103 46.5606L16.1477 46.556L16.285 46.5502L16.4221 46.543L16.559 46.5344L16.6958 46.5246L16.8324 46.5134L16.9688 46.5008L17.105 46.4869L17.241 46.4717L17.3766 46.4552L17.5122 46.4374L17.6474 46.4182L17.7823 46.3977L17.917 46.3759L18.0514 46.3528L18.1854 46.3284L18.3191 46.3027L18.4525 46.2758L18.5855 46.2474L18.7182 46.2179L18.8504 46.187L18.9823 46.1549L19.1138 46.1215L19.2448 46.0868L19.3754 46.0509L19.5056 46.0137L19.6353 45.9752L19.7646 45.9355L19.8933 45.8946L20.0216 45.8524L20.1494 45.809L20.2765 45.7644L20.4033 45.7185L20.5294 45.6714L20.655 45.6231L20.7801 45.5737L20.9045 45.523L21.0283 45.4711L21.1516 45.4181L21.2742 45.3638L21.3962 45.3085L21.5176 45.2519L21.6383 45.1942L21.7583 45.1354L21.8778 45.0753L21.9964 45.0142L22.1144 44.9519L22.2318 44.8885L22.3482 44.824L22.4641 44.7584L22.5791 44.6918L22.6936 44.6239L22.807 44.5551L22.92 44.4851L23.0319 44.4142L23.1431 44.3421L23.2536 44.269L23.3633 44.1947L23.4719 44.1197L23.5798 44.0434L23.687 43.9662L23.7932 43.8881L23.8986 43.8088L24.003 43.7287L24.1068 43.6474L24.2094 43.5654L24.3112 43.4823L24.4122 43.3982L24.5122 43.3132L24.6112 43.2274L24.7094 43.1405L24.8065 43.0528L24.9027 42.9642L24.998 42.8746L25.0922 42.7843L25.1855 42.693L25.2778 42.6008L25.3691 42.5078L25.4594 42.414L25.5486 42.3194L25.6368 42.2241L25.7242 42.1276L25.8102 42.0306L25.8954 41.9327L25.9794 41.8342L26.0625 41.7347L26.1444 41.6346L26.2252 41.5338L26.305 41.4321L26.3837 41.3298L26.4614 41.2267L26.5378 41.123L26.6132 41.0186L26.6876 40.9134L26.7606 40.8078L26.8326 40.7013L26.9034 40.5943L26.9732 40.4866L27.0419 40.3782L27.1093 40.2694L27.1755 40.1599L27.2407 40.0496L27.3046 39.9391L27.3674 39.8278L27.429 39.716L27.4894 39.6038L27.5486 39.4909L27.6067 39.3774L27.6634 39.2639L27.7191 39.1494L27.7736 39.0346L27.8268 38.9194L27.8788 38.8037L27.9296 38.6875L27.9791 38.571L28.0275 38.4539L28.0746 38.3365L28.1205 38.219L28.1651 38.1006L28.2085 37.9822L28.2507 37.8632L28.2917 37.744L28.3314 37.6244L28.3697 37.5048L28.407 37.3843L28.4428 37.264L28.4774 37.1433L28.5109 37.0224L28.543 36.901L28.5738 36.7797L28.6035 36.6579L28.6318 36.5359L28.659 36.4138L28.6848 36.2914L28.7093 36.1691L28.7326 36.0462L28.7546 35.9237L28.7753 35.8006L28.7947 35.6775L28.8129 35.5544L28.8298 35.431L28.8454 35.3078L28.8598 35.1841L28.8729 35.0608L28.8847 34.9371L28.8952 34.8137L28.9045 34.6898L28.9125 34.5665L28.9192 34.4427L28.9246 34.3189L28.9288 34.1954L28.9318 34.0721L28.9334 33.9483L28.9338 33.8248L28.9329 33.7014L28.9307 33.5782L28.9273 33.4549L28.9226 33.3321L28.9166 33.2088L28.9094 33.0861L28.901 32.9634L28.8913 32.841L28.8803 32.7185L28.8682 32.5965L28.8547 32.4744L28.84 32.3527L28.8241 32.2311L28.807 32.1099L28.7885 31.9886L28.7689 31.8679L28.7481 31.7476L28.726 31.6272L28.7026 31.5072L28.6782 31.3877L28.6524 31.2681L28.6256 31.1494L28.5974 31.0305L28.5682 30.9124L28.5375 30.7942L28.5058 30.6768L28.473 30.5596L28.4389 30.4426L28.4037 30.3264L28.3673 30.2106L28.3296 30.0948L28.291 29.9799L28.251 29.8651L28.21 29.751L28.1678 29.6372L28.1245 29.5242L28.0799 29.4113L28.0343 29.299L27.9877 29.1875L27.9399 29.0765L27.8908 28.9656L27.841 28.8558L27.7897 28.746L27.7375 28.6373L27.6842 28.529L27.6298 28.421L27.5744 28.314L27.5178 28.2074L27.4602 28.1014L27.4018 27.9963L27.342 27.8915L27.2814 27.7876L27.2195 27.6842L27.157 27.5818L27.093 27.4796L27.0284 27.3784L26.9626 27.2777L26.8958 27.1778L26.8282 27.0789L26.7594 26.9803L26.6898 26.8826L26.6192 26.7857L26.5476 26.6896L26.4751 26.5941L26.4017 26.4995L26.3274 26.4056L26.2521 26.3126L26.1759 26.2203L26.0988 26.1288L26.0208 26.0382L25.942 25.9483L25.8624 25.8594L25.7818 25.7712L25.7002 25.6838L25.6182 25.5975L25.5349 25.5118L25.4511 25.4272L25.3664 25.3433L25.281 25.2604L25.1944 25.1782L25.1075 25.0972L25.0195 25.0169L24.9308 24.9375L24.8416 24.8592L24.7515 24.7818L24.6604 24.705L24.5688 24.6294L24.4766 24.5548L24.3835 24.4811L24.2898 24.4083L24.1955 24.3367L24.1002 24.2657L24.0046 24.196L23.9082 24.1272L23.8111 24.0593L23.7136 23.9925L23.615 23.9265L23.5165 23.8618L23.4168 23.7979L23.3168 23.7351L23.216 23.6733L23.1148 23.6125L23.013 23.5528L22.9109 23.4942L22.8078 23.4364L22.7046 23.3799L22.6006 23.3243L22.4962 23.2698L22.3914 23.2165L22.286 23.1641L22.1802 23.1127L22.0739 23.0626L21.9671 23.0134L21.8601 22.9654L21.7525 22.9183L21.641 22.871L21.5362 22.8277L21.4272 22.7838L21.3183 22.7414L21.2086 22.6997L21.0988 22.6594L20.9886 22.62L20.8781 22.5818L20.7671 22.5446L20.6561 22.5087L20.5446 22.4738L20.4328 22.4401L20.321 22.4075L20.2086 22.376L20.0959 22.3455L19.9834 22.3163L19.8706 22.2882L19.757 22.2611L19.6439 22.2353L19.5302 22.2105L19.4166 22.1869L19.3025 22.1643L19.1886 22.143L19.0743 22.1227L18.9602 22.1037L18.8454 22.0857L18.731 22.0689L18.6164 22.0532L18.5016 22.0386L18.3868 22.0252L18.272 22.0129L18.1571 22.0018L18.0422 21.9917L17.9271 21.9829L17.812 21.9751L17.6972 21.9685L17.5823 21.963L17.467 21.9586L17.3524 21.9554L17.2375 21.9533L17.1227 21.9524L17.0078 21.9525L16.9847 21.9528L17.021 25.0106L17.0862 25.0102L17.1701 25.0107L17.254 25.012L17.338 25.0142L17.4221 25.0171L17.5062 25.021L17.5902 25.0256L17.6744 25.031L17.7586 25.0374L17.8427 25.0445L17.9269 25.0525L18.011 25.0613L18.0951 25.071L18.1792 25.0814L18.2632 25.0927L18.3472 25.105L18.4311 25.1179L18.515 25.1318L18.5988 25.1465L18.6825 25.162L18.7661 25.1784L18.8496 25.1956L18.933 25.2136L19.0163 25.2325L19.0994 25.2522L19.1825 25.2728L19.2653 25.2942L19.348 25.3164L19.4306 25.3394L19.513 25.3634L19.5952 25.3881L19.6772 25.4136L19.759 25.44L19.8406 25.4672L19.922 25.4953L20.0031 25.5242L20.0841 25.5538L20.1647 25.5843L20.2452 25.6157L20.3254 25.6478L20.4053 25.6808L20.4849 25.7146L20.5642 25.7492L20.6433 25.7846L20.722 25.8208L20.8004 25.8578L20.8786 25.8957L20.9563 25.9343L21.0338 25.9738L21.1109 26.014L21.1876 26.055L21.264 26.0968L21.34 26.1394L21.4156 26.1827L21.4909 26.2269L21.5658 26.2718L21.6402 26.3175L21.7142 26.364L21.7878 26.4113L21.861 26.4593L21.9337 26.508L22.006 26.5575L22.0778 26.6078L22.1492 26.6588L22.2201 26.7106L22.2905 26.7631L22.3605 26.8163L22.4298 26.8703L22.4988 26.925L22.5672 26.9804L22.6351 27.0366L22.7025 27.0934L22.7694 27.151L22.8357 27.2092L22.9014 27.2682L22.9666 27.3278L23.0312 27.3882L23.0953 27.4492L23.1587 27.5109L23.2216 27.5733L23.2839 27.6363L23.3456 27.7001L23.4067 27.7644L23.4671 27.8294L23.527 27.8951L23.5862 27.9614L23.6447 28.0283L23.7026 28.0959L23.7599 28.1641L23.8166 28.2329L23.8725 28.3023L23.9278 28.3723L23.9823 28.443L24.0362 28.5142L24.0894 28.586L24.1419 28.6583L24.1938 28.7313L24.2448 28.8048L24.2952 28.8789L24.3448 28.9535L24.3937 29.0286L24.4418 29.1044L24.4893 29.1806L24.536 29.2574L24.5819 29.3346L24.627 29.4125L24.6714 29.4907L24.715 29.5695L24.7578 29.6488L24.7999 29.7286L24.8412 29.8088L24.8816 29.8895L24.9213 29.9707L24.9602 30.0523L24.9982 30.1343L25.0354 30.2169L25.0718 30.2998L25.1074 30.3831L25.1421 30.4669L25.176 30.551L25.209 30.6356L25.2412 30.7205L25.2726 30.8058L25.303 30.8915L25.3327 30.9776L25.3615 31.064L25.3894 31.1508L25.4164 31.2378L25.4426 31.3253L25.4678 31.413L25.4922 31.5011L25.5157 31.5895L25.5383 31.6782L25.56 31.7671L25.5808 31.8563L25.6007 31.9458L25.6197 32.0356L25.6378 32.1256L25.6549 32.2158L25.6711 32.3064L25.6865 32.3971L25.7009 32.488L25.7143 32.5792L25.7269 32.6705L25.7385 32.762L25.7492 32.8538L25.7589 32.9457L25.7677 33.0377L25.7756 33.1299L25.7825 33.2222L25.7885 33.3147L25.7934 33.4073L25.7975 33.5L25.8006 33.5929L25.8028 33.6858L25.804 33.7788L25.8042 33.8719L25.8035 33.965L25.8018 34.0582L25.7992 34.1515L25.7956 34.2449L25.791 34.3382L25.7855 34.4315L25.779 34.525L25.7716 34.6183L25.7631 34.7117L25.7538 34.805L25.7434 34.8983L25.7321 34.9917L25.7198 35.0849L25.7065 35.1781L25.6922 35.2712L25.677 35.3642L25.6609 35.4572L25.6437 35.5501L25.6256 35.6429L25.6065 35.7355L25.5864 35.8281L25.5654 35.9205L25.5434 36.0127L25.5205 36.1048L25.4966 36.1968L25.4717 36.2886L25.4458 36.3802L25.419 36.4715L25.3913 36.5627L25.3626 36.6538L25.3328 36.7446L25.3022 36.835L25.2706 36.9254L25.2381 37.0154L25.2046 37.1052L25.1701 37.1947L25.1347 37.284L25.0984 37.373L25.0611 37.4617L25.0229 37.55L24.9838 37.6381L24.9437 37.7258L24.9026 37.8132L24.8607 37.9002L24.8178 37.987L24.774 38.0733L24.7293 38.1593L24.6837 38.2448L24.6371 38.33L24.5897 38.4148L24.5414 38.4992L24.4921 38.5831L24.4419 38.6667L24.3909 38.7498L24.339 38.8325L24.2861 38.9146L24.2324 38.9964L24.1778 39.0776L24.1223 39.1584L24.066 39.2387L24.0088 39.3185L23.9507 39.3978L23.8918 39.4766L23.8321 39.5548L23.7714 39.6325L23.71 39.7096L23.6477 39.7862L23.5846 39.8622L23.5206 39.9378L23.4558 40.0126L23.3902 40.087L23.3238 40.1606L23.2566 40.2338L23.1886 40.3062L23.1199 40.3782L23.0503 40.4494L22.98 40.52L22.9088 40.5899L22.837 40.6593L22.7642 40.7279L22.6909 40.7958L22.6167 40.8632L22.5418 40.9298L22.4662 40.9957L22.3898 41.061L22.3127 41.1254L22.2349 41.1893L22.1564 41.2523L22.0771 41.3146L21.9972 41.3762L21.9166 41.4371L21.8354 41.4972L21.7534 41.5566L21.6708 41.6152L21.5875 41.673L21.5036 41.73L21.419 41.7862L21.3338 41.8417L21.2479 41.8963L21.1615 41.9502L21.0744 42.0031L20.9868 42.0554L20.8985 42.1067L20.8097 42.1572L20.7202 42.2069L20.6302 42.2558L20.5397 42.3038L20.4486 42.3509L20.3569 42.3971L20.2647 42.4425L20.172 42.487L20.0787 42.5306L19.985 42.5734L19.8907 42.6152L19.796 42.6562L19.7007 42.6962L19.605 42.7353L19.5089 42.7735L19.4122 42.8108L19.3152 42.8472L19.2177 42.8826L19.1198 42.9171L19.0214 42.9506L18.9226 42.9833L18.8234 43.0149L18.7239 43.0456L18.624 43.0754L18.5237 43.1041L18.423 43.1319L18.322 43.1587L18.2206 43.1846L18.119 43.2094L18.017 43.2334L17.9146 43.2562L17.812 43.2782L17.709 43.299L17.6058 43.319L17.5024 43.3379L17.3986 43.3558L17.2946 43.3727L17.1905 43.3886L17.086 43.4034L16.9813 43.4173L16.8764 43.4302L16.7714 43.4419L16.6661 43.4527L16.5606 43.4625L16.455 43.4712L16.3493 43.4789L16.2434 43.4855L16.1373 43.4911L16.0311 43.4957L15.9248 43.4992L15.8184 43.5017L15.7119 43.5031L15.6053 43.5035L15.4986 43.5029L15.392 43.5011L15.2852 43.4984L15.1784 43.4946L15.0716 43.4897L14.9647 43.4838L14.8579 43.4768L14.751 43.4688L14.6442 43.4597L14.5374 43.4495L14.4306 43.4383L14.3239 43.4261L14.2173 43.4128L14.1106 43.3984L14.0042 43.383L13.8978 43.3665L13.7914 43.349L13.6852 43.3303L13.5791 43.3107L13.4732 43.29L13.3674 43.2682L13.2618 43.2454L13.1563 43.2215L13.051 43.1966L12.9459 43.1706L12.841 43.1435L12.7363 43.1154L12.6318 43.0863L12.5277 43.0562L12.4237 43.025L12.3199 42.9927L12.2165 42.9594L12.1134 42.925L12.0104 42.8897L11.9078 42.8533L11.8056 42.8158L11.7036 42.7774L11.602 42.7378L11.5007 42.6974L11.3998 42.6558L11.2992 42.6132L11.199 42.5697L11.0993 42.525L10.9998 42.4794L10.9009 42.4329L10.8023 42.3853L10.7042 42.3366L10.6064 42.287L10.5092 42.2365L10.4124 42.1849L10.3161 42.1323L10.2202 42.0788L10.1249 42.0242L10.03 41.9688L9.93568 41.9123L9.84184 41.8549L9.74856 41.7966L9.65584 41.7372L9.56368 41.677L9.47208 41.6157L9.38104 41.5535L9.29056 41.4905L9.20072 41.4265L9.11144 41.3615L9.0228 41.2957L8.93472 41.2289L8.84736 41.1612L8.76064 41.0926L8.67456 41.0231L8.58912 40.9528L8.50432 40.8815L8.42024 40.8094L8.33688 40.7364L8.25416 40.6626L8.17216 40.5878L8.09096 40.5123L8.0104 40.4359L7.93056 40.3586L7.85152 40.2806L7.77328 40.2017L7.69576 40.1219L7.61896 40.0414L7.54296 39.9601L7.46784 39.878L7.39344 39.795L7.31984 39.7114L7.24712 39.6269L7.17512 39.5417L7.10408 39.4557L7.03376 39.3689L6.9644 39.2814L6.89584 39.1932L6.82816 39.1042L6.76136 39.0146L6.69536 38.9242L6.63032 38.8331L6.56624 38.7414L6.50296 38.6489L6.44064 38.5558L6.37925 38.462L6.31878 38.3675L6.25923 38.2724L6.20064 38.1766L6.14299 38.0802L6.0863 37.9833L6.03058 37.8856L5.97582 37.7874L5.92204 37.6886L5.86925 37.5892L5.81744 37.4892L5.76663 37.3886L5.71683 37.2875L5.66804 37.1858L5.62026 37.0837L5.57351 36.9809L5.52778 36.8777L5.4831 36.7739L5.43945 36.6696L5.39684 36.5649L5.3553 36.4597L5.3148 36.3539L5.27537 36.2478L5.237 36.1412L5.19971 36.0341L5.1635 35.9266L5.12838 35.8187L5.09434 35.7104L5.06139 35.6018L5.02954 35.4926L4.9988 35.3832L4.96916 35.2734L4.94064 35.1631L4.91323 35.0526L4.88694 34.9418L4.86178 34.8306L4.83774 34.719L4.81483 34.6073L4.79306 34.4952L4.77243 34.3828L4.75294 34.2702L4.73461 34.1573L4.71742 34.0442L4.70138 33.9308L4.6865 33.8172L4.67278 33.7034L4.66022 33.5894L4.64882 33.4752L4.63858 33.3608L4.62953 33.2462L4.62164 33.1316L4.61492 33.0167L4.60938 32.9018L4.60502 32.7867L4.60185 32.6715L4.59985 32.5562L4.59903 32.4408L4.59941 32.3254L4.60096 32.2098L4.60371 32.0943L4.60764 31.9787L4.61277 31.863L4.61909 31.7474L4.62659 31.6318L4.6353 31.5162L4.64518 31.4005L4.65627 31.285L4.66856 31.1694L4.68203 31.0539L4.6967 30.9385L4.71257 30.8231L4.72962 30.7078L4.74788 30.5927L4.76732 30.4777L4.78796 30.3628L4.80979 30.248L4.83282 30.1334L4.85702 30.019L4.88243 29.9046L4.90902 29.7906L4.9368 29.6766L4.96576 29.563L4.99591 29.4495L5.02724 29.3362L5.05975 29.2233L5.09345 29.1106L5.12831 28.9981L5.16436 28.8858L5.20158 28.774L5.23996 28.6624L5.27952 28.5511L5.32024 28.4402L5.36212 28.3295L5.40516 28.2193L5.44936 28.1094L5.49471 27.9998L5.54122 27.8907L5.58886 27.7819L5.63766 27.6736L5.68759 27.5657L5.73866 27.4582L5.79086 27.3511L5.8442 27.2446L5.89866 27.1384L5.95423 27.0328L6.01092 26.9276L6.06873 26.823L6.12764 26.7188L6.18765 26.6151L6.24876 26.5121L6.31097 26.4095L6.37426 26.3075L6.43864 26.2061L6.50408 26.1052L6.57064 26.005L6.63816 25.9053L6.70688 25.8062L6.77656 25.7078L6.84728 25.6099L6.91912 25.5128L6.99192 25.4162L7.06584 25.3204L7.14072 25.2252L7.21664 25.1307L7.29352 25.037L7.37144 24.9438L7.4504 24.8514L7.53032 24.7598L7.6112 24.6689L7.69312 24.5787L7.77592 24.4893L7.85976 24.4006L7.94456 24.3127L8.03024 24.2257L8.11688 24.1394L8.20448 24.0538L8.29304 23.9692L8.38248 23.8853L8.4728 23.8023L8.56408 23.7201L8.65624 23.6388L8.7492 23.5583L8.84312 23.4787L8.93792 23.4L9.03352 23.3222L9.13 23.2452L9.22736 23.1692L9.32552 23.0941L9.42448 23.0199L9.52432 22.9466L9.62488 22.8743L9.72624 22.803L9.82848 22.7326L9.93144 22.6631L10.0351 22.5947L10.1397 22.5272L10.2449 22.4607L10.3509 22.3952L10.4576 22.3307L10.565 22.2673L10.6731 22.2048L10.782 22.1434L10.8915 22.083L11.0017 22.0237L11.1126 21.9654L11.2241 21.9082L11.3362 21.852L11.449 21.7969L11.5625 21.7429L11.6766 21.6899L11.7912 21.6381L11.9065 21.5874L12.0223 21.5377L12.1387 21.4892L12.2557 21.4418L12.3731 21.3955L12.4912 21.3504L12.6098 21.3064L12.7289 21.2635L12.8485 21.2218L12.9686 21.1812L13.0891 21.1418L13.2101 21.1035L13.3316 21.0664L13.4535 21.0305L13.5759 20.9958L13.6986 20.9622L13.8218 20.9299L13.9454 20.8987L14.0694 20.8687L14.1938 20.84L14.3185 20.8124L14.4435 20.7861L14.5689 20.7609L14.6946 20.737L14.8206 20.7143L14.947 20.6928L15.0736 20.6726L15.2005 20.6536L15.3276 20.6358L15.455 20.6193L15.5025 20.6136ZM15.5562 25.1489L15.5196 22.0575L15.4152 22.0721L15.303 22.0889L15.1906 22.1069L15.079 22.1258L14.9673 22.146L14.8561 22.1671L14.7451 22.1894L14.6346 22.2127L14.5242 22.2371L14.4142 22.2625L14.3044 22.289L14.1951 22.3166L14.0859 22.3453L13.981 22.3739L13.8693 22.4057L13.7614 22.4374L13.6539 22.4702L13.547 22.504L13.4404 22.5389L13.3342 22.5748L13.2284 22.6117L13.1232 22.6495L13.0184 22.6885L12.9141 22.7283L12.8102 22.7693L12.707 22.8111L12.6039 22.8541L12.5016 22.8979L12.3998 22.9427L12.2986 22.9885L12.1978 23.0353L12.0974 23.083L11.998 23.1316L11.8987 23.1813L11.8005 23.2318L11.7024 23.2834L11.6053 23.3356L11.5083 23.3891L11.4123 23.4432L11.317 23.4983L11.2221 23.5544L11.1279 23.6113L11.0342 23.6692L10.9415 23.7278L10.8492 23.7874L10.7578 23.8478L10.667 23.909L10.5768 23.9711L10.4872 24.0342L10.3986 24.0978L10.3106 24.1625L10.2232 24.2279L10.1366 24.2942L10.0509 24.3611L9.96568 24.429L9.88144 24.4976L9.79792 24.567L9.71504 24.6373L9.6332 24.7081L9.55192 24.7798L9.47144 24.8523L9.39184 24.9254L9.31312 24.9993L9.23496 25.074L9.15792 25.1492L9.0816 25.2252L9.006 25.302L8.93136 25.3794L8.85752 25.4575L8.78456 25.5362L8.71248 25.6156L8.6412 25.6957L8.57072 25.7765L8.50144 25.8577L8.4328 25.9397L8.36504 26.0223L8.29824 26.1054L8.2324 26.1891L8.16728 26.2736L8.1032 26.3585L8.04 26.444L7.97776 26.5301L7.9164 26.6167L7.85608 26.7038L7.79664 26.7914L7.73808 26.8797L7.68048 26.9684L7.62392 27.0575L7.56832 27.1472L7.5136 27.2375L7.45984 27.3281L7.40712 27.4192L7.35528 27.5108L7.30456 27.6026L7.25472 27.6951L7.20576 27.7881L7.158 27.8812L7.11112 27.975L7.06528 28.069L7.0204 28.1634L6.97656 28.2582L6.93368 28.3534L6.89184 28.4489L6.85096 28.5447L6.8112 28.6409L6.7724 28.7374L6.73456 28.8342L6.69776 28.9314L6.66208 29.0287L6.62728 29.1265L6.59368 29.2243L6.56096 29.3226L6.52936 29.421L6.49872 29.5198L6.4692 29.6186L6.44064 29.7178L6.4132 29.817L6.38673 29.9166L6.36132 30.0163L6.33696 30.1162L6.31365 30.2163L6.29137 30.3165L6.27013 30.4169L6.24996 30.5174L6.23082 30.6179L6.21272 30.7187L6.19569 30.8195L6.17968 30.9205L6.16474 31.0214L6.15083 31.1225L6.13798 31.2236L6.12618 31.3248L6.11542 31.426L6.1057 31.5273L6.09704 31.6286L6.08942 31.7298L6.08285 31.8311L6.07731 31.9324L6.07282 32.0336L6.06938 32.1348L6.06698 32.2359L6.06562 32.337L6.06529 32.4382L6.066 32.5391L6.06775 32.64L6.07054 32.7408L6.07434 32.8414L6.07919 32.9421L6.08506 33.0426L6.09196 33.1428L6.09989 33.243L6.10883 33.343L6.1188 33.4429L6.12978 33.5426L6.14178 33.6421L6.15479 33.7414L6.16881 33.8405L6.18384 33.9394L6.19986 34.038L6.2169 34.1365L6.23493 34.2347L6.25394 34.3326L6.27396 34.4303L6.29495 34.5277L6.31694 34.6249L6.33989 34.7216L6.36384 34.8182L6.38875 34.9144L6.41464 35.0103L6.44144 35.1058L6.46928 35.2011L6.498 35.296L6.52776 35.3906L6.5584 35.4848L6.59 35.5786L6.62256 35.6719L6.656 35.765L6.6904 35.8576L6.72576 35.9498L6.762 36.0416L6.79912 36.133L6.8372 36.2239L6.87616 36.3144L6.91608 36.4044L6.9568 36.494L6.99848 36.583L7.04104 36.6717L7.0844 36.7598L7.12872 36.8474L7.17384 36.9346L7.21984 37.0213L7.26672 37.1074L7.3144 37.193L7.36296 37.278L7.41232 37.3625L7.46256 37.4464L7.5136 37.5298L7.56544 37.6126L7.61808 37.6949L7.6716 37.7766L7.72576 37.8576L7.78088 37.9382L7.83664 38.018L7.89328 38.0973L7.95064 38.1759L8.0088 38.2539L8.06768 38.3313L8.12736 38.4081L8.18768 38.4842L8.2488 38.5596L8.31064 38.6344L8.3732 38.7086L8.43648 38.7819L8.50048 38.8548L8.56512 38.9268L8.63048 38.9982L8.69648 39.0689L8.7632 39.1389L8.83056 39.2082L8.89864 39.2767L8.96728 39.3446L9.03664 39.4117L9.10664 39.4781L9.17712 39.5437L9.2484 39.6086L9.32016 39.6727L9.39256 39.7361L9.4656 39.7987L9.5392 39.8606L9.61336 39.9217L9.68808 39.9819L9.76336 40.0414L9.8392 40.1002L9.9156 40.1582L9.99256 40.2153L10.0699 40.2716L10.1478 40.3271L10.2263 40.3818L10.3053 40.4358L10.3848 40.4889L10.4647 40.5411L10.5451 40.5926L10.626 40.6432L10.7073 40.693L10.789 40.7419L10.8713 40.79L10.9538 40.8372L11.037 40.8836L11.1203 40.9291L11.2042 40.9738L11.2885 41.0177L11.373 41.0606L11.4581 41.1027L11.5435 41.1439L11.6292 41.1843L11.7152 41.2238L11.8017 41.2624L11.8883 41.3001L11.9754 41.3369L12.0627 41.3729L12.1504 41.4079L12.2382 41.4421L12.3265 41.4754L12.415 41.5078L12.5037 41.5393L12.5926 41.5698L12.6819 41.5996L12.7714 41.6283L12.861 41.6562L12.951 41.6832L13.041 41.7093L13.1313 41.7345L13.2218 41.7587L13.3124 41.7822L13.4032 41.8046L13.4942 41.8261L13.5853 41.8467L13.6766 41.8665L13.7679 41.8853L13.8594 41.9031L13.951 41.9201L14.0426 41.9362L14.1345 41.9514L14.2263 41.9655L14.3182 41.9789L14.4102 41.9913L14.5022 42.0028L14.5943 42.0134L14.6864 42.023L14.7786 42.0318L14.8707 42.0396L14.9629 42.0465L15.055 42.0526L15.1471 42.0576L15.2392 42.0618L15.3314 42.0651L15.4234 42.0675L15.5153 42.069L15.6072 42.0695L15.699 42.0692L15.7908 42.0679L15.8825 42.0658L15.974 42.0628L16.0655 42.0589L16.1568 42.054L16.248 42.0483L16.339 42.0417L16.43 42.0342L16.5207 42.0258L16.6114 42.0165L16.7018 42.0063L16.7921 41.9953L16.8822 41.9834L16.972 41.9706L17.0617 41.957L17.1511 41.9424L17.2402 41.927L17.3293 41.9107L17.418 41.8936L17.5065 41.8757L17.5948 41.8568L17.6826 41.8371L17.7703 41.8166L17.8577 41.7952L17.9448 41.773L18.0316 41.75L18.1181 41.7261L18.2042 41.7014L18.2901 41.6758L18.3755 41.6495L18.4606 41.6223L18.5455 41.5943L18.6299 41.5655L18.714 41.5359L18.7977 41.5055L18.881 41.4743L18.9638 41.4423L19.0463 41.4095L19.1285 41.3759L19.2102 41.3416L19.2914 41.3065L19.3722 41.2706L19.4526 41.234L19.5326 41.1966L19.6121 41.1584L19.691 41.1196L19.7697 41.0798L19.8477 41.0395L19.9254 40.9983L20.0023 40.9566L20.079 40.914L20.1551 40.8707L20.2306 40.8267L20.3058 40.782L20.3803 40.7366L20.4542 40.6906L20.5278 40.6438L20.6006 40.5964L20.673 40.5482L20.745 40.4994L20.8162 40.4499L20.8867 40.3999L20.957 40.349L21.0264 40.2978L21.0954 40.2457L21.1638 40.193L21.2313 40.1398L21.2986 40.0858L21.3651 40.0312L21.4308 39.9762L21.4962 39.9202L21.5608 39.864L21.6247 39.8072L21.6882 39.7495L21.7508 39.6916L21.8129 39.633L21.8743 39.5738L21.935 39.5141L21.995 39.4538L22.0545 39.393L22.1132 39.3316L22.1711 39.2698L22.2285 39.2074L22.2852 39.1445L22.341 39.0812L22.3964 39.0172L22.4509 38.9529L22.5046 38.8881L22.5578 38.8226L22.6102 38.757L22.6618 38.6907L22.7128 38.6241L22.763 38.5569L22.8125 38.4894L22.8611 38.4215L22.9092 38.353L22.9564 38.2842L23.0029 38.215L23.0487 38.1454L23.0935 38.0755L23.1378 38.0051L23.1813 37.9343L23.224 37.8633L23.2658 37.7918L23.3071 37.7199L23.3474 37.648L23.387 37.5754L23.4258 37.5026L23.4638 37.4296L23.5011 37.356L23.5374 37.2826L23.5732 37.2083L23.6079 37.1343L23.6422 37.0595L23.6753 36.9849L23.7078 36.9096L23.7395 36.8344L23.7703 36.7589L23.8004 36.683L23.8297 36.607L23.858 36.5309L23.8858 36.4543L23.9125 36.3777L23.9385 36.3009L23.9637 36.2238L23.9881 36.1466L24.0117 36.0692L24.0344 35.9918L24.0563 35.914L24.0774 35.8362L24.0977 35.7582L24.1171 35.6802L24.1358 35.6021L24.1536 35.5236L24.1706 35.4452L24.1868 35.3667L24.2021 35.2882L24.2166 35.2096L24.2303 35.1306L24.2432 35.052L24.2553 34.9731L24.2665 34.8942L24.2769 34.8154L24.2865 34.7364L24.2953 34.6572L24.3032 34.5786L24.3104 34.4993L24.3167 34.4203L24.3222 34.3415L24.3269 34.2625L24.3307 34.1836L24.3338 34.1048L24.336 34.0258L24.3374 33.9472L24.338 33.8683L24.3378 33.7897L24.3368 33.711L24.335 33.6327L24.3323 33.5542L24.3289 33.4759L24.3246 33.3979L24.3196 33.3197L24.3138 33.2417L24.3072 33.1641L24.2998 33.0862L24.2915 33.0089L24.2825 32.9314L24.2727 32.8542L24.2622 32.7772L24.2508 32.7002L24.2386 32.6236L24.2258 32.5472L24.2121 32.471L24.1976 32.395L24.1823 32.3189L24.1663 32.2434L24.1496 32.1681L24.1321 32.0929L24.1138 32.0178L24.0948 31.9434L24.075 31.8688L24.0545 31.7948L24.0332 31.7209L24.0112 31.6474L23.9885 31.5741L23.965 31.501L23.9408 31.4285L23.9159 31.3562L23.8902 31.2839L23.8639 31.2123L23.8368 31.1409L23.809 31.0699L23.7806 30.9991L23.7514 30.9286L23.7215 30.8588L23.6909 30.789L23.6597 30.7198L23.6278 30.651L23.5951 30.5824L23.5618 30.5142L23.5279 30.4466L23.4932 30.3791L23.458 30.3123L23.4221 30.2459L23.3854 30.1796L23.3483 30.1141L23.3104 30.0488L23.2719 29.9841L23.2327 29.9196L23.1931 29.8558L23.1526 29.7922L23.1118 29.7294L23.0702 29.6669L23.028 29.6049L22.9851 29.5432L22.9418 29.4822L22.8979 29.4217L22.8533 29.3614L22.8082 29.3019L22.7625 29.2428L22.7164 29.1843L22.6695 29.1262L22.6222 29.0686L22.5742 29.0116L22.5258 28.955L22.477 28.8992L22.4274 28.8437L22.3774 28.7889L22.3269 28.7345L22.276 28.6809L22.2243 28.6275L22.1724 28.575L22.1198 28.5227L22.0668 28.4713L22.0134 28.4204L21.9595 28.37L21.905 28.3202L21.8502 28.271L21.7949 28.2225L21.739 28.1743L21.683 28.1271L21.6263 28.0802L21.5693 28.034L21.5118 27.9885L21.4539 27.9434L21.3957 27.899L21.3372 27.8554L21.278 27.8122L21.2184 27.7696L21.1588 27.7279L21.0984 27.6866L21.0381 27.6462L20.9772 27.6062L20.9159 27.5668L20.8542 27.5281L20.7925 27.4902L20.7301 27.4527L20.6676 27.4161L20.6046 27.3799L20.5416 27.3446L20.4781 27.3099L20.4142 27.2758L20.3502 27.2423L20.2859 27.2097L20.2213 27.1775L20.1563 27.1461L20.0913 27.1154L20.0261 27.0854L19.9602 27.0558L19.8946 27.0272L19.8285 26.9992L19.7621 26.9718L19.6956 26.9451L19.629 26.9192L19.5622 26.8939L19.4949 26.8692L19.4278 26.8454L19.3602 26.8221L19.2926 26.7995L19.225 26.7777L19.157 26.7566L19.0891 26.7361L19.0206 26.7162L18.9524 26.6972L18.884 26.6788L18.8154 26.6611L18.7468 26.6441L18.6778 26.6278L18.609 26.6122L18.5402 26.5973L18.4711 26.583L18.4018 26.5694L18.333 26.5567L18.2636 26.5446L18.1944 26.5331L18.1249 26.5223L18.0558 26.5123L17.9861 26.5029L17.9169 26.4943L17.8474 26.4863L17.778 26.479L17.7086 26.4725L17.6391 26.4666L17.5699 26.4614L17.5003 26.4569L17.431 26.453L17.3619 26.4499L17.2923 26.4474L17.2233 26.4457L17.1542 26.4446L17.0851 26.4442L17.0379 26.4444L17.0737 29.4647L17.095 29.4648L17.1347 29.4654L17.1745 29.4663L17.2143 29.4676L17.2542 29.4694L17.2941 29.4716L17.334 29.4742L17.374 29.4772L17.414 29.4806L17.4541 29.4845L17.4942 29.4887L17.5342 29.4934L17.5744 29.4985L17.6145 29.504L17.6546 29.5099L17.6948 29.5163L17.735 29.5231L17.775 29.5303L17.8152 29.538L17.8553 29.546L17.8954 29.5546L17.9354 29.5634L17.9755 29.5728L18.0154 29.5826L18.0554 29.5927L18.0954 29.6034L18.1352 29.6144L18.175 29.6258L18.2148 29.6378L18.2545 29.6501L18.2941 29.6629L18.3337 29.6761L18.3731 29.6897L18.4126 29.7037L18.4518 29.7182L18.491 29.733L18.5302 29.7483L18.5692 29.7641L18.6081 29.7802L18.6469 29.7968L18.6856 29.8138L18.7242 29.8313L18.7626 29.8491L18.801 29.8674L18.8391 29.8861L18.8772 29.9052L18.915 29.9248L18.9528 29.9447L18.9904 29.9651L19.0278 29.9859L19.0651 30.0071L19.1022 30.0287L19.1391 30.0507L19.1759 30.0732L19.2125 30.0961L19.2489 30.1194L19.285 30.143L19.321 30.167L19.3569 30.1916L19.3925 30.2165L19.4278 30.2418L19.463 30.2674L19.498 30.2935L19.5327 30.32L19.5672 30.3469L19.6015 30.3742L19.6355 30.4018L19.6693 30.4298L19.7029 30.4583L19.7362 30.4871L19.7692 30.5163L19.802 30.5459L19.8345 30.5759L19.8667 30.6062L19.8986 30.637L19.9304 30.6681L19.9618 30.6995L19.9929 30.7314L20.0238 30.7635L20.0542 30.7961L20.0845 30.829L20.1144 30.8623L20.1441 30.8959L20.1734 30.9299L20.2023 30.9642L20.231 30.9989L20.2594 31.0339L20.2874 31.0693L20.315 31.105L20.3424 31.141L20.3694 31.1774L20.3961 31.2141L20.4223 31.251L20.4483 31.2884L20.4739 31.3261L20.4991 31.3641L20.524 31.4023L20.5486 31.441L20.5726 31.4798L20.5964 31.519L20.6198 31.5586L20.6427 31.5983L20.6654 31.6384L20.6875 31.6788L20.7094 31.7194L20.7308 31.7604L20.7518 31.8016L20.7724 31.843L20.7926 31.8848L20.8123 31.9269L20.8317 31.9691L20.8506 32.0117L20.8692 32.0545L20.8873 32.0975L20.905 32.1408L20.9222 32.1843L20.939 32.2281L20.9554 32.2721L20.9713 32.3163L20.9867 32.3608L21.0018 32.4054L21.0163 32.4503L21.0304 32.4954L21.0441 32.5407L21.0573 32.5862L21.07 32.632L21.0823 32.6778L21.0942 32.7239L21.1054 32.7702L21.1163 32.8167L21.1267 32.8633L21.1366 32.9102L21.1461 32.9571L21.155 33.0042L21.1634 33.0515L21.1714 33.099L21.179 33.1465L21.1859 33.1942L21.1924 33.2421L21.1984 33.2901L21.2039 33.3382L21.209 33.3865L21.2134 33.4348L21.2174 33.4833L21.221 33.5319L21.2239 33.5806L21.2264 33.6294L21.2283 33.6782L21.2298 33.7272L21.2307 33.7762L21.2312 33.8254L21.231 33.8745L21.2305 33.9238L21.2294 33.9731L21.2277 34.0225L21.2255 34.0719L21.2228 34.1214L21.2196 34.1709L21.2158 34.2204L21.2115 34.27L21.2067 34.3196L21.2014 34.3692L21.1955 34.4188L21.1891 34.4685L21.1822 34.5182L21.1748 34.5678L21.1668 34.6174L21.1582 34.667L21.1492 34.7166L21.1396 34.7662L21.1295 34.8157L21.1188 34.8652L21.1076 34.9146L21.0959 34.9641L21.0836 35.0134L21.0708 35.0628L21.0575 35.112L21.0436 35.1612L21.0292 35.2102L21.0142 35.2593L20.9988 35.3082L20.9828 35.357L20.9662 35.4058L20.9492 35.4545L20.9315 35.503L20.9134 35.5514L20.8947 35.5997L20.8755 35.6479L20.8558 35.6959L20.8355 35.7438L20.8147 35.7916L20.7934 35.8393L20.7715 35.8867L20.7491 35.934L20.7262 35.9812L20.7028 36.0282L20.6788 36.075L20.6543 36.1216L20.6293 36.168L20.6038 36.2142L20.5778 36.2603L20.5512 36.3062L20.5241 36.3518L20.4966 36.3972L20.4684 36.4425L20.4398 36.4874L20.4107 36.5322L20.381 36.5767L20.351 36.621L20.3203 36.665L20.2892 36.7088L20.2575 36.7523L20.2254 36.7956L20.1928 36.8386L20.1597 36.8813L20.1261 36.9238L20.092 36.9659L20.0574 37.0078L20.0224 37.0494L19.9869 37.0906L19.9508 37.1316L19.9143 37.1722L19.8774 37.2126L19.8399 37.2526L19.8021 37.2923L19.7637 37.3318L19.7249 37.3708L19.6856 37.4094L19.6459 37.4478L19.6057 37.4858L19.565 37.5234L19.524 37.5607L19.4825 37.5977L19.4406 37.6342L19.3982 37.6704L19.3554 37.7062L19.3121 37.7416L19.2684 37.7766L19.2243 37.8112L19.1798 37.8454L19.135 37.8793L19.0896 37.9127L19.0439 37.9457L18.9978 37.9782L18.9513 38.0105L18.9043 38.0422L18.857 38.0735L18.8094 38.1043L18.7613 38.1348L18.7128 38.1648L18.664 38.1943L18.6148 38.2234L18.5653 38.252L18.5154 38.2802L18.465 38.3078L18.4145 38.3351L18.3635 38.3618L18.3122 38.3882L18.2606 38.4139L18.2086 38.4393L18.1563 38.4641L18.1037 38.4884L18.0508 38.5122L17.9975 38.5355L17.944 38.5584L17.8902 38.5807L17.836 38.6025L17.7815 38.6238L17.7268 38.6446L17.6718 38.6648L17.6165 38.6846L17.561 38.7038L17.5051 38.7224L17.449 38.7406L17.3927 38.7581L17.3362 38.7751L17.2793 38.7917L17.2222 38.8076L17.165 38.823L17.1074 38.8378L17.0497 38.8522L16.9917 38.8658L16.9335 38.879L16.8751 38.8916L16.8166 38.9037L16.7578 38.9151L16.6988 38.926L16.6397 38.9363L16.5803 38.9461L16.5209 38.9552L16.4612 38.9638L16.4014 38.9718L16.3414 38.9792L16.2814 38.986L16.2211 38.9922L16.1607 38.9978L16.1002 39.0028L16.0396 39.0073L15.9788 39.011L15.918 39.0143L15.857 39.017L15.796 39.019L15.7348 39.0203L15.6736 39.0211L15.6123 39.0214L15.551 39.021L15.4895 39.0199L15.428 39.0182L15.3665 39.016L15.3049 39.0131L15.2432 39.0096L15.1815 39.0055L15.1198 39.0008L15.0582 38.9954L14.9964 38.9894L14.9347 38.9829L14.873 38.9756L14.8113 38.9678L14.7495 38.9593L14.6878 38.9502L14.6262 38.9405L14.5646 38.9302L14.503 38.9192L14.4414 38.9076L14.3799 38.8954L14.3185 38.8826L14.2571 38.8691L14.1958 38.855L14.1346 38.8402L14.0734 38.825L14.0124 38.809L13.9515 38.7923L13.8906 38.7751L13.83 38.7573L13.7694 38.7388L13.7089 38.7197L13.6486 38.7L13.5883 38.6797L13.5283 38.6587L13.4684 38.6371L13.4086 38.6149L13.3491 38.5921L13.2897 38.5686L13.2305 38.5446L13.1714 38.5199L13.1126 38.4946L13.054 38.4687L12.9955 38.4422L12.9374 38.4151L12.8793 38.3874L12.8215 38.359L12.764 38.3301L12.7067 38.3006L12.6497 38.2704L12.5929 38.2397L12.5363 38.2083L12.4801 38.1764L12.424 38.1438L12.3683 38.1107L12.3129 38.077L12.2578 38.0427L12.2029 38.0078L12.1483 37.9724L12.0941 37.9363L12.0402 37.8997L11.9866 37.8625L11.9334 37.8247L11.8804 37.7864L11.8278 37.7474L11.7756 37.708L11.7238 37.668L11.6722 37.6274L11.6211 37.5862L11.5703 37.5446L11.5199 37.5023L11.4699 37.4595L11.4203 37.4162L11.3711 37.3723L11.3223 37.3279L11.2739 37.283L11.2259 37.2375L11.1784 37.1915L11.1312 37.145L11.0846 37.098L11.0383 37.0505L10.9925 37.0024L10.9471 36.9539L10.9022 36.9048L10.8578 36.8553L10.8138 36.8053L10.7704 36.7547L10.7274 36.7038L10.6848 36.6522L10.6428 36.6002L10.6013 36.5478L10.5602 36.495L10.5197 36.4416L10.4797 36.3878L10.4402 36.3335L10.4013 36.2788L10.3628 36.2236L10.3249 36.168L10.2875 36.112L10.2507 36.0555L10.2145 35.9986L10.1787 35.9414L10.1436 35.8837L10.109 35.8255L10.075 35.767L10.0415 35.7081L10.0086 35.6488L9.97632 35.5891L9.94464 35.529L9.91352 35.4686L9.88296 35.4078L9.85304 35.3466L9.82376 35.285L9.79504 35.2232L9.76696 35.161L9.73952 35.0984L9.71264 35.0354L9.6864 34.9722L9.6608 34.9086L9.63584 34.8448L9.61152 34.7806L9.58792 34.7161L9.56488 34.6513L9.54248 34.5862L9.52072 34.5209L9.49968 34.4552L9.47928 34.3893L9.45952 34.3231L9.4404 34.2566L9.422 34.1899L9.40432 34.123L9.3872 34.0558L9.37088 33.9883L9.3552 33.9207L9.34016 33.8528L9.32584 33.7847L9.31224 33.7164L9.29928 33.6479L9.28704 33.5792L9.27552 33.5103L9.26472 33.4413L9.25456 33.372L9.24512 33.3026L9.23648 33.233L9.22848 33.1634L9.2212 33.0934L9.21464 33.0234L9.2088 32.9533L9.20368 32.883L9.19928 32.8126L9.1956 32.7422L9.19264 32.6716L9.1904 32.6009L9.18896 32.5301L9.18824 32.4593L9.18816 32.3883L9.18888 32.3173L9.1904 32.2462L9.19256 32.1751L9.19552 32.1039L9.1992 32.0327L9.2036 31.9615L9.20872 31.8902L9.21464 31.819L9.22128 31.7477L9.22864 31.6764L9.2368 31.6051L9.24568 31.5338L9.25528 31.4626L9.26568 31.3914L9.2768 31.3202L9.28872 31.2491L9.30128 31.178L9.31464 31.107L9.3288 31.036L9.34368 30.9651L9.35928 30.8943L9.3756 30.8236L9.39272 30.753L9.41056 30.6825L9.4292 30.6121L9.44856 30.5418L9.46864 30.4717L9.48944 30.4016L9.51104 30.3318L9.53336 30.262L9.5564 30.1924L9.58024 30.123L9.6048 30.0538L9.63008 29.9847L9.65608 29.9158L9.68288 29.8472L9.7104 29.7787L9.73864 29.7104L9.7676 29.6424L9.79728 29.5746L9.82776 29.507L9.85888 29.4396L9.8908 29.3725L9.92336 29.3057L9.95672 29.239L9.99072 29.1727L10.0255 29.1067L10.061 29.041L10.0972 28.9755L10.1341 28.9103L10.1717 28.8454L10.21 28.781L10.249 28.7167L10.2887 28.6528L10.3292 28.5893L10.3703 28.526L10.4121 28.4631L10.4546 28.4006L10.4978 28.3385L10.5416 28.2767L10.5862 28.2154L10.6314 28.1543L10.6772 28.0937L10.7238 28.0335L10.771 27.9737L10.8189 27.9143L10.8674 27.8553L10.9166 27.7968L10.9664 27.7386L11.0169 27.681L11.068 27.6238L11.1198 27.567L11.1722 27.5107L11.2252 27.4549L11.2789 27.3995L11.3331 27.3446L11.388 27.2902L11.4435 27.2363L11.4996 27.183L11.5563 27.1301L11.6136 27.0777L11.6714 27.0258L11.7299 26.9745L11.789 26.9238L11.8486 26.8734L11.9089 26.8238L11.9696 26.7746L12.031 26.726L12.0928 26.678L12.1553 26.6306L12.2182 26.5837L12.2818 26.5374L12.3458 26.4917L12.4104 26.4466L12.4755 26.402L12.5412 26.3581L12.6073 26.3148L12.6739 26.2722L12.7411 26.2301L12.8087 26.1886L12.8769 26.1478L12.9454 26.1077L13.0146 26.0682L13.0841 26.0293L13.1541 25.991L13.2246 25.9535L13.2954 25.9166L13.3668 25.8804L13.4386 25.8449L13.5108 25.81L13.5834 25.7758L13.6565 25.7423L13.7299 25.7095L13.8038 25.6774L13.8781 25.646L13.9527 25.6153L14.0277 25.5854L14.1031 25.5561L14.1789 25.5275L14.255 25.4997L14.3314 25.4726L14.4083 25.4462L14.4854 25.4206L14.563 25.3958L14.6407 25.3716L14.7189 25.3482L14.7973 25.3256L14.876 25.3038L14.955 25.2826L15.0343 25.2622L15.1139 25.2426L15.1938 25.2238L15.2739 25.2058L15.3542 25.1886L15.4349 25.1721L15.5157 25.1564L15.5562 25.1489ZM16.5498 30.9571L15.6277 31.1774L15.5735 26.6098L15.5301 26.6196L15.4646 26.635L15.3993 26.6511L15.3344 26.6678L15.2696 26.685L15.2052 26.703L15.1408 26.7216L15.077 26.7406L15.0131 26.7605L14.95 26.7807L14.8867 26.8018L14.8238 26.8234L14.7613 26.8455L14.699 26.8682L14.6372 26.8915L14.5755 26.9155L14.5142 26.94L14.4532 26.965L14.3923 26.9908L14.3322 27.0169L14.2722 27.0438L14.2126 27.071L14.1532 27.099L14.0943 27.1274L14.0356 27.1565L13.9775 27.186L13.9197 27.2161L13.8622 27.2467L13.8052 27.2778L13.7485 27.3095L13.6922 27.3418L13.6365 27.3744L13.5807 27.4078L13.5257 27.4414L13.4711 27.4757L13.4169 27.5104L13.363 27.5457L13.3096 27.5814L13.2566 27.6177L13.2041 27.6543L13.1521 27.6914L13.1003 27.7291L13.0491 27.7673L12.9984 27.8058L12.9481 27.8449L12.8983 27.8842L12.849 27.9242L12.8001 27.9646L12.7516 28.0054L12.7038 28.0466L12.6563 28.0882L12.6094 28.1302L12.5629 28.1727L12.5169 28.2157L12.4714 28.259L12.4265 28.3026L12.3819 28.3467L12.338 28.3911L12.2946 28.436L12.2517 28.4811L12.2091 28.5269L12.1673 28.5727L12.1259 28.619L12.085 28.6658L12.0448 28.7126L12.005 28.7601L11.9658 28.8076L11.927 28.8558L11.889 28.904L11.8513 28.9527L11.8142 29.0018L11.7778 29.051L11.7418 29.1005L11.7064 29.1503L11.6715 29.2006L11.6372 29.251L11.6035 29.3018L11.5704 29.3526L11.5378 29.4038L11.5058 29.4554L11.4744 29.5071L11.4434 29.5593L11.4132 29.6114L11.3834 29.6639L11.3542 29.7166L11.3258 29.7695L11.2978 29.8226L11.2704 29.876L11.2435 29.9297L11.2174 29.9833L11.1917 30.0374L11.1666 30.0914L11.1422 30.1458L11.1183 30.2002L11.095 30.255L11.0724 30.3097L11.0503 30.3647L11.0289 30.4198L11.0079 30.4751L10.9877 30.5304L10.968 30.586L10.9489 30.6417L10.9304 30.6974L10.9125 30.7533L10.8952 30.8094L10.8785 30.8654L10.8625 30.9215L10.847 30.9778L10.832 31.0342L10.8178 31.0906L10.8041 31.1471L10.791 31.2037L10.7785 31.2603L10.7666 31.317L10.7554 31.3737L10.7446 31.4304L10.7346 31.4873L10.7251 31.544L10.7162 31.6008L10.7079 31.6578L10.7002 31.7145L10.6932 31.7714L10.6867 31.8282L10.6808 31.885L10.6755 31.942L10.6708 31.9987L10.6667 32.0555L10.6632 32.1123L10.6602 32.169L10.6579 32.2256L10.6562 32.2822L10.655 32.3388L10.6544 32.3953L10.6545 32.4517L10.655 32.508L10.6562 32.5643L10.658 32.6205L10.6603 32.6766L10.6632 32.7326L10.6667 32.7884L10.6708 32.8442L10.6754 32.8998L10.6806 32.9554L10.6864 33.0109L10.6927 33.066L10.6996 33.1213L10.707 33.1762L10.7151 33.2311L10.7237 33.2858L10.7328 33.3403L10.7425 33.3948L10.7527 33.449L10.7635 33.503L10.7748 33.5568L10.7867 33.6106L10.7991 33.664L10.8121 33.7174L10.8255 33.7703L10.8396 33.8234L10.8541 33.8759L10.8691 33.9285L10.8847 33.9806L10.9008 34.0327L10.9174 34.0845L10.9346 34.1359L10.9522 34.1874L10.9704 34.2384L10.989 34.2891L11.0082 34.3398L11.0278 34.3901L11.048 34.4401L11.0686 34.4898L11.0897 34.5393L11.1114 34.5886L11.1334 34.6375L11.156 34.6862L11.179 34.7345L11.2025 34.7825L11.2266 34.8304L11.2509 34.8778L11.2758 34.9249L11.3011 34.9718L11.327 35.0182L11.3532 35.0645L11.3798 35.1104L11.407 35.1558L11.4346 35.2011L11.4625 35.246L11.4909 35.2905L11.5198 35.3347L11.549 35.3786L11.5786 35.4222L11.6086 35.4651L11.6391 35.508L11.67 35.5504L11.7012 35.5924L11.733 35.6342L11.765 35.6754L11.7974 35.7163L11.8302 35.7569L11.8634 35.7971L11.8968 35.8368L11.9308 35.8762L11.965 35.9153L11.9996 35.9538L12.0347 35.9921L12.0699 36.0298L12.1056 36.0673L12.1416 36.1042L12.1778 36.1408L12.2146 36.177L12.2515 36.2127L12.2888 36.2481L12.3264 36.283L12.3643 36.3174L12.4026 36.3515L12.441 36.3851L12.4798 36.4183L12.5189 36.4511L12.5582 36.4834L12.5979 36.5154L12.6379 36.5468L12.678 36.5778L12.7185 36.6083L12.7592 36.6385L12.8002 36.6682L12.8414 36.6974L12.8828 36.7262L12.9245 36.7545L12.9664 36.7823L13.0085 36.8097L13.0508 36.8366L13.0935 36.8632L13.1362 36.8891L13.1792 36.9147L13.2225 36.9398L13.2658 36.9644L13.3093 36.9886L13.3532 37.0123L13.3971 37.0355L13.4412 37.0582L13.4854 37.0805L13.53 37.1023L13.5745 37.1236L13.6194 37.1445L13.6642 37.1649L13.7092 37.1847L13.7545 37.2042L13.7998 37.2231L13.8452 37.2416L13.8908 37.2596L13.9365 37.277L13.9824 37.2941L14.0282 37.3106L14.0743 37.3267L14.1203 37.3422L14.1665 37.3574L14.2128 37.372L14.2592 37.3862L14.3056 37.3998L14.3521 37.413L14.3987 37.4256L14.4454 37.4378L14.492 37.4495L14.5387 37.4608L14.5854 37.4715L14.6322 37.4818L14.6791 37.4916L14.726 37.5009L14.7729 37.5098L14.8198 37.5181L14.8667 37.526L14.9137 37.5334L14.9606 37.5403L15.0074 37.5467L15.0544 37.5526L15.1013 37.5582L15.1482 37.5632L15.1951 37.5677L15.242 37.5718L15.2888 37.5754L15.3355 37.5785L15.3823 37.5811L15.429 37.5833L15.4755 37.585L15.5222 37.5862L15.5686 37.587L15.615 37.5874L15.6614 37.5872L15.7077 37.5866L15.754 37.5855L15.8002 37.584L15.8461 37.5821L15.892 37.5796L15.938 37.5767L15.9836 37.5734L16.0293 37.5696L16.0747 37.5654L16.1202 37.5607L16.1654 37.5555L16.2105 37.55L16.2556 37.544L16.3004 37.5375L16.345 37.5306L16.3898 37.5234L16.4342 37.5156L16.4784 37.5074L16.5226 37.4988L16.5666 37.4898L16.6102 37.4803L16.6538 37.4705L16.6973 37.4602L16.7406 37.4494L16.7836 37.4384L16.8265 37.4269L16.8691 37.415L16.9118 37.4026L16.954 37.3898L16.9959 37.3767L17.038 37.3631L17.0796 37.3492L17.121 37.335L17.1622 37.3202L17.2032 37.3051L17.2441 37.2896L17.2846 37.2738L17.3249 37.2575L17.365 37.241L17.4048 37.2239L17.4445 37.2066L17.4837 37.1889L17.5229 37.1708L17.5617 37.1524L17.6002 37.1336L17.6386 37.1145L17.6765 37.095L17.7143 37.0752L17.7518 37.055L17.789 37.0345L17.8259 37.0137L17.8626 36.9925L17.899 36.971L17.935 36.9491L17.9708 36.927L18.0063 36.9045L18.0415 36.8818L18.0765 36.8586L18.111 36.8353L18.1454 36.8115L18.1794 36.7875L18.213 36.7633L18.2463 36.7386L18.2794 36.7138L18.3121 36.6886L18.3445 36.6631L18.3766 36.6374L18.4083 36.6114L18.4398 36.5852L18.4708 36.5586L18.5015 36.5318L18.532 36.5048L18.5621 36.4774L18.5918 36.4499L18.6211 36.4222L18.6502 36.3941L18.679 36.3658L18.7074 36.3373L18.7354 36.3086L18.763 36.2795L18.7902 36.2504L18.8173 36.2209L18.8438 36.1914L18.8701 36.1614L18.8959 36.1314L18.9214 36.1012L18.9466 36.0706L18.9713 36.0401L18.9958 36.0092L19.0198 35.9782L19.0434 35.947L19.0668 35.9156L19.0897 35.8842L19.1122 35.8523L19.1345 35.8204L19.1562 35.7885L19.1777 35.7562L19.1988 35.7238L19.2194 35.6914L19.2397 35.6587L19.2596 35.6259L19.2791 35.593L19.2983 35.5599L19.317 35.5267L19.3354 35.4934L19.3534 35.4599L19.371 35.4265L19.3882 35.3928L19.4051 35.359L19.4216 35.3252L19.4377 35.2911L19.4534 35.2571L19.4686 35.223L19.4835 35.1888L19.4981 35.1544L19.5122 35.1201L19.526 35.0854L19.5393 35.0511L19.5523 35.0162L19.5648 34.9819L19.577 34.947L19.5889 34.9122L19.6002 34.8774L19.6113 34.8426L19.6219 34.8078L19.6322 34.7726L19.642 34.7378L19.6516 34.7026L19.6606 34.6678L19.6694 34.6326L19.6777 34.5974L19.6856 34.5625L19.6931 34.5276L19.7003 34.4922L19.7071 34.4573L19.7135 34.422L19.7195 34.3871L19.7252 34.3521L19.7305 34.317L19.7354 34.2818L19.7398 34.2468L19.744 34.2119L19.7478 34.1771L19.7511 34.142L19.7542 34.1072L19.7568 34.0723L19.759 34.0375L19.761 34.0028L19.7625 33.9682L19.7636 33.9337L19.7644 33.899L19.7649 33.8643L19.765 33.83L19.7646 33.7957L19.764 33.7614L19.763 33.7273L19.7616 33.693L19.7598 33.6593L19.7578 33.6249L19.7554 33.5914L19.7526 33.5577L19.7494 33.5238L19.7459 33.4902L19.7422 33.457L19.7379 33.4234L19.7334 33.3904L19.7286 33.3572L19.7234 33.3245L19.7178 33.2914L19.712 33.2586L19.7058 33.2262L19.6994 33.1938L19.6925 33.1613L19.6853 33.1292L19.6778 33.0971L19.67 33.0653L19.6619 33.0337L19.6534 33.0018L19.6447 32.9706L19.6356 32.9391L19.6262 32.9082L19.6166 32.8772L19.6066 32.8465L19.5962 32.8158L19.5856 32.7853L19.5748 32.7552L19.5636 32.7252L19.5521 32.6951L19.5403 32.6655L19.5282 32.6358L19.516 32.6067L19.5033 32.5774L19.4905 32.5485L19.4773 32.5198L19.4638 32.4912L19.4502 32.4629L19.4362 32.4347L19.4219 32.4067L19.4074 32.379L19.3926 32.3515L19.3777 32.3242L19.3624 32.2971L19.3468 32.2702L19.3311 32.2436L19.3151 32.2172L19.2988 32.1909L19.2823 32.165L19.2656 32.1393L19.2486 32.1138L19.2314 32.0884L19.2141 32.0634L19.1964 32.0386L19.1786 32.014L19.1605 31.9897L19.1422 31.9656L19.1238 31.9418L19.105 31.9181L19.0861 31.8948L19.067 31.8717L19.0477 31.8488L19.0282 31.8262L19.0086 31.8038L18.9886 31.7818L18.9686 31.7599L18.9483 31.7382L18.9279 31.717L18.9073 31.6959L18.8865 31.675L18.8656 31.6546L18.8445 31.6343L18.8233 31.6143L18.8017 31.5945L18.7802 31.575L18.7585 31.5558L18.7366 31.5369L18.7146 31.5182L18.6924 31.4998L18.6701 31.4817L18.6477 31.4638L18.6251 31.4462L18.6024 31.4289L18.5796 31.4119L18.5566 31.3951L18.5335 31.3786L18.5104 31.3625L18.4871 31.3465L18.4638 31.3309L18.4402 31.3155L18.4166 31.3004L18.393 31.2856L18.369 31.271L18.3452 31.2568L18.3213 31.2429L18.2972 31.2292L18.273 31.2158L18.2488 31.2026L18.2246 31.1898L18.2002 31.1772L18.1758 31.165L18.1512 31.1529L18.1267 31.1412L18.1021 31.1298L18.0774 31.1186L18.0527 31.1078L18.0278 31.0971L18.0032 31.0869L17.9782 31.0769L17.9533 31.0671L17.9284 31.0577L17.9034 31.0485L17.8785 31.0396L17.8534 31.031L17.8284 31.0226L17.8034 31.0146L17.7783 31.0067L17.7532 30.9992L17.7282 30.992L17.703 30.985L17.678 30.9784L17.6529 30.972L17.6278 30.9658L17.6026 30.96L17.5776 30.9544L17.5525 30.9491L17.5274 30.9441L17.5025 30.9393L17.4775 30.9348L17.4524 30.9306L17.4276 30.9266L17.4025 30.923L17.3778 30.9195L17.3528 30.9163L17.328 30.9134L17.3034 30.9108L17.2786 30.9085L17.2539 30.9063L17.2293 30.9045L17.2047 30.9029L17.1802 30.9015L17.1557 30.9005L17.1314 30.8997L17.107 30.899L17.0828 30.8987L17.0586 30.8986L17.0345 30.8989L17.0104 30.8993L16.9865 30.8999L16.9626 30.9009L16.9389 30.902L16.915 30.9034L16.8915 30.905L16.868 30.9069L16.8446 30.909L16.8213 30.9114L16.7979 30.9139L16.7749 30.9167L16.7518 30.9198L16.729 30.923L16.7061 30.9266L16.6834 30.9302L16.6608 30.9342L16.6385 30.9383L16.616 30.9427L16.5938 30.9473L16.5717 30.9521L16.5498 30.9571Z" fill="#475569"/>
<path d="M48.8062 35.5352C48.8062 35.2305 48.7594 34.957 48.6656 34.7148C48.5797 34.4648 48.4156 34.2383 48.1734 34.0352C47.9312 33.8242 47.5914 33.6172 47.1539 33.4141C46.7164 33.2109 46.15 33 45.4547 32.7812C44.6812 32.5312 43.9469 32.25 43.2516 31.9375C42.5641 31.625 41.9547 31.2617 41.4234 30.8477C40.9 30.4258 40.4859 29.9375 40.1812 29.3828C39.8844 28.8281 39.7359 28.1836 39.7359 27.4492C39.7359 26.7383 39.8922 26.0938 40.2047 25.5156C40.5172 24.9297 40.9547 24.4297 41.5172 24.0156C42.0797 23.5938 42.7437 23.2695 43.5094 23.043C44.2828 22.8164 45.1305 22.7031 46.0523 22.7031C47.3102 22.7031 48.4078 22.9297 49.3453 23.3828C50.2828 23.8359 51.0094 24.457 51.525 25.2461C52.0484 26.0352 52.3102 26.9375 52.3102 27.9531H48.818C48.818 27.4531 48.7125 27.0156 48.5016 26.6406C48.2984 26.2578 47.9859 25.957 47.5641 25.7383C47.15 25.5195 46.6266 25.4102 45.9937 25.4102C45.3844 25.4102 44.8766 25.5039 44.4703 25.6914C44.0641 25.8711 43.7594 26.1172 43.5562 26.4297C43.3531 26.7344 43.2516 27.0781 43.2516 27.4609C43.2516 27.75 43.3219 28.0117 43.4625 28.2461C43.6109 28.4805 43.8297 28.6992 44.1187 28.9023C44.4078 29.1055 44.7633 29.2969 45.1852 29.4766C45.607 29.6562 46.0953 29.832 46.65 30.0039C47.5797 30.2852 48.3961 30.6016 49.0992 30.9531C49.8102 31.3047 50.4039 31.6992 50.8805 32.1367C51.357 32.5742 51.7164 33.0703 51.9586 33.625C52.2008 34.1797 52.3219 34.8086 52.3219 35.5117C52.3219 36.2539 52.1773 36.918 51.8883 37.5039C51.5992 38.0898 51.1812 38.5859 50.6344 38.9922C50.0875 39.3984 49.4352 39.707 48.6773 39.918C47.9195 40.1289 47.0719 40.2344 46.1344 40.2344C45.2906 40.2344 44.4586 40.125 43.6383 39.9062C42.818 39.6797 42.0719 39.3398 41.4 38.8867C40.7359 38.4336 40.2047 37.8555 39.8062 37.1523C39.4078 36.4492 39.2086 35.6172 39.2086 34.6562H42.7359C42.7359 35.1875 42.818 35.6367 42.982 36.0039C43.1461 36.3711 43.3766 36.668 43.6734 36.8945C43.9781 37.1211 44.3375 37.2852 44.7516 37.3867C45.1734 37.4883 45.6344 37.5391 46.1344 37.5391C46.7437 37.5391 47.2437 37.4531 47.6344 37.2812C48.0328 37.1094 48.3258 36.8711 48.5133 36.5664C48.7086 36.2617 48.8062 35.918 48.8062 35.5352ZM66.0914 29.8867V32.6289H57.1852V29.8867H66.0914ZM58.2281 22.9375V40H54.7125V22.9375H58.2281ZM68.5992 22.9375V40H65.0953V22.9375H68.5992ZM83.107 37.2578V40H74.025V37.2578H83.107ZM75.1734 22.9375V40H71.6578V22.9375H75.1734ZM81.9234 29.8867V32.5586H74.025V29.8867H81.9234ZM83.0953 22.9375V25.6914H74.025V22.9375H83.0953ZM96.1266 37.2578V40H87.5367V37.2578H96.1266ZM88.6734 22.9375V40H85.1578V22.9375H88.6734ZM109.111 37.2578V40H100.521V37.2578H109.111ZM101.658 22.9375V40H98.1422V22.9375H101.658ZM120.009 35.5352C120.009 35.2305 119.962 34.957 119.869 34.7148C119.783 34.4648 119.619 34.2383 119.377 34.0352C119.134 33.8242 118.795 33.6172 118.357 33.4141C117.92 33.2109 117.353 33 116.658 32.7812C115.884 32.5312 115.15 32.25 114.455 31.9375C113.767 31.625 113.158 31.2617 112.627 30.8477C112.103 30.4258 111.689 29.9375 111.384 29.3828C111.087 28.8281 110.939 28.1836 110.939 27.4492C110.939 26.7383 111.095 26.0938 111.408 25.5156C111.72 24.9297 112.158 24.4297 112.72 24.0156C113.283 23.5938 113.947 23.2695 114.712 23.043C115.486 22.8164 116.334 22.7031 117.255 22.7031C118.513 22.7031 119.611 22.9297 120.548 23.3828C121.486 23.8359 122.212 24.457 122.728 25.2461C123.252 26.0352 123.513 26.9375 123.513 27.9531H120.021C120.021 27.4531 119.916 27.0156 119.705 26.6406C119.502 26.2578 119.189 25.957 118.767 25.7383C118.353 25.5195 117.83 25.4102 117.197 25.4102C116.587 25.4102 116.08 25.5039 115.673 25.6914C115.267 25.8711 114.962 26.1172 114.759 26.4297C114.556 26.7344 114.455 27.0781 114.455 27.4609C114.455 27.75 114.525 28.0117 114.666 28.2461C114.814 28.4805 115.033 28.6992 115.322 28.9023C115.611 29.1055 115.966 29.2969 116.388 29.4766C116.81 29.6562 117.298 29.832 117.853 30.0039C118.783 30.2852 119.599 30.6016 120.302 30.9531C121.013 31.3047 121.607 31.6992 122.084 32.1367C122.56 32.5742 122.92 33.0703 123.162 33.625C123.404 34.1797 123.525 34.8086 123.525 35.5117C123.525 36.2539 123.38 36.918 123.091 37.5039C122.802 38.0898 122.384 38.5859 121.837 38.9922C121.291 39.3984 120.638 39.707 119.88 39.918C119.123 40.1289 118.275 40.2344 117.337 40.2344C116.494 40.2344 115.662 40.125 114.841 39.9062C114.021 39.6797 113.275 39.3398 112.603 38.8867C111.939 38.4336 111.408 37.8555 111.009 37.1523C110.611 36.4492 110.412 35.6172 110.412 34.6562H113.939C113.939 35.1875 114.021 35.6367 114.185 36.0039C114.349 36.3711 114.58 36.668 114.877 36.8945C115.181 37.1211 115.541 37.2852 115.955 37.3867C116.377 37.4883 116.837 37.5391 117.337 37.5391C117.947 37.5391 118.447 37.4531 118.837 37.2812C119.236 37.1094 119.529 36.8711 119.716 36.5664C119.912 36.2617 120.009 35.918 120.009 35.5352Z" fill="#475569"/>
</svg>
