<svg width="120" height="40" viewBox="0 0 120 40" fill="none" xmlns="http://www.w3.org/2000/svg">
<path d="M110.135 -5.31055e-05H9.53468C9.16798 -5.31055e-05 8.80568 -5.31054e-05 8.43995 0.00194689C8.1338 0.00394689 7.83009 0.00975689 7.521 0.0146469C6.84951 0.0225487 6.17961 0.0816232 5.5171 0.191357C4.85552 0.30348 4.21467 0.514863 3.61622 0.818357C3.0185 1.12442 2.47235 1.52211 1.99757 1.99702C1.5203 2.47058 1.12246 3.01796 0.81935 3.61811C0.5154 4.21706 0.304641 4.85889 0.19435 5.52143C0.0830109 6.18313 0.0230984 6.85247 0.01515 7.52343C0.00587 7.83003 0.00489 8.13765 0 8.44429V31.5585C0.00489 31.869 0.00587 32.1698 0.01515 32.4804C0.0231008 33.1514 0.0830134 33.8207 0.19435 34.4823C0.304336 35.1453 0.515108 35.7875 0.81935 36.3866C1.12233 36.9848 1.52022 37.53 1.99757 38.0009C2.47054 38.478 3.01705 38.8759 3.61622 39.1796C4.21467 39.484 4.85545 39.6966 5.5171 39.8104C6.17972 39.9193 6.84956 39.9784 7.521 39.9872C7.83009 39.994 8.1338 39.9979 8.43995 39.9979C8.80567 39.9999 9.168 39.9999 9.53468 39.9999H110.135C110.494 39.9999 110.859 39.9999 111.219 39.9979C111.523 39.9979 111.836 39.994 112.141 39.9872C112.811 39.9789 113.479 39.9198 114.141 39.8104C114.804 39.6958 115.448 39.4832 116.049 39.1796C116.647 38.8758 117.193 38.4778 117.666 38.0009C118.142 37.5282 118.541 36.9834 118.848 36.3866C119.15 35.787 119.358 35.1449 119.467 34.4823C119.578 33.8206 119.64 33.1514 119.652 32.4804C119.656 32.1698 119.656 31.869 119.656 31.5585C119.664 31.1952 119.664 30.8339 119.664 30.4647V9.53608C119.664 9.16987 119.664 8.80659 119.656 8.44429C119.656 8.13765 119.656 7.83003 119.652 7.52339C119.64 6.85237 119.578 6.18318 119.467 5.52139C119.358 4.85923 119.149 4.21745 118.848 3.61807C118.23 2.41514 117.252 1.43597 116.049 0.818267C115.448 0.515514 114.804 0.304187 114.141 0.191267C113.48 0.0810497 112.811 0.0219547 112.141 0.0145069C111.836 0.00962689 111.523 0.00376689 111.219 0.00181689C110.859 -0.000183105 110.494 -0.000183105 110.135 -0.000183105V-5.31055e-05Z" fill="#A6A6A6"/>
<path d="M8.44483 39.1249C8.14015 39.1249 7.84283 39.121 7.54054 39.1142C6.91432 39.1061 6.28957 39.0516 5.6714 38.9511C5.09499 38.8519 4.5366 38.6672 4.01466 38.4032C3.4975 38.1415 3.02581 37.7982 2.61766 37.3866C2.2036 36.9799 1.85888 36.5082 1.59715 35.9901C1.33254 35.4687 1.14941 34.9098 1.05415 34.3329C0.951273 33.7131 0.895613 33.0863 0.887649 32.4579C0.881309 32.247 0.873009 31.5448 0.873009 31.5448V8.44428C0.873009 8.44428 0.881849 7.75287 0.887699 7.54974C0.895325 6.92242 0.950661 6.29659 1.05323 5.67767C1.14867 5.09919 1.33194 4.53869 1.59669 4.01557C1.85745 3.49788 2.20026 3.0258 2.61183 2.61762C3.02293 2.20556 3.49613 1.86054 4.01417 1.59515C4.53491 1.33203 5.09224 1.14867 5.66749 1.05121C6.28769 0.949775 6.91461 0.894935 7.543 0.887149L8.44532 0.874939H111.214L112.127 0.887639C112.75 0.895038 113.371 0.949389 113.985 1.05023C114.566 1.14891 115.13 1.33355 115.656 1.59808C116.694 2.13293 117.539 2.9791 118.071 4.01801C118.332 4.53752 118.512 5.09345 118.606 5.66693C118.71 6.29093 118.768 6.92168 118.78 7.55414C118.783 7.83734 118.783 8.14154 118.783 8.44428C118.791 8.81928 118.791 9.17621 118.791 9.53607V30.4647C118.791 30.828 118.791 31.1825 118.783 31.5399C118.783 31.8651 118.783 32.163 118.779 32.4696C118.768 33.0908 118.71 33.7103 118.608 34.3231C118.515 34.9042 118.333 35.4674 118.068 35.9931C117.805 36.5056 117.462 36.9732 117.053 37.3788C116.644 37.7926 116.172 38.1379 115.653 38.4013C115.128 38.6673 114.566 38.8527 113.985 38.9511C113.367 39.0521 112.742 39.1066 112.116 39.1142C111.823 39.121 111.517 39.1249 111.219 39.1249L110.135 39.1269L8.44483 39.1249Z" fill="black"/>
<path d="M24.7689 20.3011C24.7796 19.4664 25.0013 18.648 25.4134 17.9221C25.8254 17.1961 26.4143 16.5862 27.1254 16.149C26.6737 15.5038 26.0777 14.9729 25.3849 14.5983C24.6921 14.2238 23.9215 14.016 23.1343 13.9913C21.455 13.8151 19.8271 14.9962 18.9714 14.9962C18.0991 14.9962 16.7816 14.0088 15.3629 14.038C14.4452 14.0677 13.5509 14.3345 12.767 14.8126C11.9831 15.2906 11.3364 15.9636 10.89 16.7659C8.95595 20.1143 10.3985 25.0354 12.2511 27.742C13.178 29.0673 14.2613 30.5478 15.6788 30.4953C17.0658 30.4377 17.5839 29.6108 19.2582 29.6108C20.9169 29.6108 21.403 30.4953 22.8492 30.4619C24.3376 30.4377 25.2753 29.1306 26.1697 27.7927C26.8357 26.8484 27.3481 25.8047 27.6881 24.7002C26.8234 24.3345 26.0855 23.7223 25.5664 22.94C25.0472 22.1577 24.7699 21.2399 24.7689 20.3011Z" fill="white"/>
<path d="M22.0372 12.2113C22.8488 11.2371 23.2486 9.98487 23.1518 8.72064C21.9119 8.85086 20.7667 9.44342 19.9442 10.3803C19.542 10.8379 19.234 11.3704 19.0378 11.9471C18.8415 12.5239 18.7609 13.1337 18.8005 13.7416C19.4206 13.748 20.0341 13.6136 20.5948 13.3485C21.1554 13.0834 21.6486 12.6946 22.0372 12.2113Z" fill="white"/>
<path d="M42.3022 27.1396H37.5688L36.4321 30.4961H34.4272L38.9106 18.0781H40.9936L45.477 30.4961H43.438L42.3022 27.1396ZM38.0591 25.5908H41.8111L39.9615 20.1435H39.9097L38.0591 25.5908Z" fill="white"/>
<path d="M55.1597 25.9694C55.1597 28.7829 53.6538 30.5905 51.3813 30.5905C50.8057 30.6206 50.2332 30.488 49.7294 30.2079C49.2256 29.9277 48.8109 29.5114 48.5327 29.0065H48.4897V33.4909H46.6313V21.442H48.4302V22.9479H48.4644C48.7553 22.4454 49.177 22.0312 49.6847 21.7494C50.1923 21.4676 50.7668 21.3286 51.3472 21.3473C53.645 21.3473 55.1597 23.1637 55.1597 25.9694ZM53.2495 25.9694C53.2495 24.1364 52.3022 22.9313 50.8569 22.9313C49.437 22.9313 48.4819 24.1618 48.4819 25.9694C48.4819 27.7936 49.437 29.0153 50.8569 29.0153C52.3022 29.0153 53.2495 27.819 53.2495 25.9694Z" fill="white"/>
<path d="M65.1245 25.9694C65.1245 28.7829 63.6187 30.5905 61.3462 30.5905C60.7705 30.6206 60.198 30.488 59.6942 30.2078C59.1905 29.9277 58.7757 29.5114 58.4976 29.0065H58.4546V33.4909H56.5962V21.442H58.395V22.9479H58.4292C58.7201 22.4454 59.1418 22.0312 59.6495 21.7494C60.1571 21.4675 60.7317 21.3286 61.312 21.3473C63.6099 21.3473 65.1245 23.1637 65.1245 25.9694ZM63.2144 25.9694C63.2144 24.1364 62.2671 22.9313 60.8218 22.9313C59.4018 22.9313 58.4468 24.1618 58.4468 25.9694C58.4468 27.7936 59.4018 29.0153 60.8218 29.0153C62.2671 29.0153 63.2144 27.819 63.2144 25.9694H63.2144Z" fill="white"/>
<path d="M71.7104 27.0361C71.8481 28.2676 73.0444 29.0761 74.6792 29.0761C76.2456 29.0761 77.3726 28.2675 77.3726 27.1572C77.3726 26.1933 76.6929 25.6162 75.0835 25.2207L73.4741 24.833C71.1939 24.2822 70.1353 23.2158 70.1353 21.4853C70.1353 19.3427 72.0024 17.871 74.6538 17.871C77.2778 17.871 79.0767 19.3427 79.1372 21.4853H77.2612C77.1489 20.246 76.1245 19.498 74.6274 19.498C73.1303 19.498 72.1059 20.2548 72.1059 21.3564C72.1059 22.2343 72.7602 22.7509 74.3608 23.1464L75.729 23.4823C78.2768 24.0849 79.3354 25.1083 79.3354 26.9247C79.3354 29.248 77.4848 30.703 74.5415 30.703C71.7876 30.703 69.9282 29.2821 69.8081 27.036L71.7104 27.0361Z" fill="white"/>
<path d="M83.3462 19.2998V21.4424H85.0679V22.9141H83.3462V27.9053C83.3462 28.6807 83.6909 29.042 84.4477 29.042C84.6521 29.0384 84.8562 29.0241 85.0591 28.999V30.4619C84.7188 30.5255 84.3729 30.5543 84.0268 30.5478C82.1938 30.5478 81.479 29.8593 81.479 28.1035V22.9141H80.1626V21.4424H81.479V19.2998H83.3462Z" fill="white"/>
<path d="M86.065 25.9697C86.065 23.1211 87.7427 21.3311 90.3589 21.3311C92.9839 21.3311 94.6538 23.1211 94.6538 25.9697C94.6538 28.8262 92.9927 30.6084 90.3589 30.6084C87.7261 30.6084 86.065 28.8262 86.065 25.9697ZM92.7603 25.9697C92.7603 24.0156 91.8648 22.8623 90.3589 22.8623C88.853 22.8623 87.9585 24.0244 87.9585 25.9697C87.9585 27.9316 88.853 29.0762 90.3589 29.0762C91.8648 29.0762 92.7602 27.9316 92.7602 25.9697H92.7603Z" fill="white"/>
<path d="M96.186 21.442H97.9585V22.983H98.0015C98.1214 22.5017 98.4034 22.0763 98.8 21.7785C99.1966 21.4806 99.6836 21.3283 100.179 21.3472C100.393 21.3465 100.607 21.3697 100.816 21.4166V23.1548C100.546 23.0722 100.264 23.0343 99.981 23.0425C99.711 23.0316 99.4418 23.0792 99.192 23.1821C98.9421 23.285 98.7175 23.4407 98.5335 23.6386C98.3496 23.8365 98.2106 24.0718 98.1262 24.3285C98.0417 24.5852 98.0139 24.8571 98.0444 25.1255V30.4957H96.186L96.186 21.442Z" fill="white"/>
<path d="M109.384 27.8369C109.134 29.4805 107.534 30.6084 105.486 30.6084C102.852 30.6084 101.217 28.8437 101.217 26.0127C101.217 23.1729 102.861 21.3311 105.408 21.3311C107.913 21.3311 109.488 23.0518 109.488 25.7969V26.4336H103.093V26.5459C103.064 26.8791 103.105 27.2148 103.216 27.5306C103.326 27.8464 103.502 28.1352 103.732 28.3778C103.963 28.6203 104.242 28.8111 104.552 28.9374C104.861 29.0637 105.195 29.1226 105.529 29.1103C105.968 29.1515 106.409 29.0498 106.785 28.8203C107.162 28.5909 107.455 28.246 107.62 27.8369L109.384 27.8369ZM103.102 25.1348H107.628C107.645 24.8352 107.6 24.5354 107.495 24.2541C107.39 23.9729 107.229 23.7164 107.02 23.5006C106.812 23.2849 106.561 23.1145 106.283 23.0003C106.006 22.8861 105.708 22.8305 105.408 22.8369C105.105 22.8351 104.805 22.8933 104.525 23.008C104.245 23.1227 103.99 23.2918 103.776 23.5054C103.562 23.7191 103.392 23.973 103.276 24.2527C103.16 24.5323 103.101 24.8321 103.102 25.1348V25.1348Z" fill="white"/>
<path d="M37.8262 8.73046C38.2158 8.70251 38.6067 8.76137 38.9709 8.9028C39.335 9.04423 39.6632 9.26471 39.9317 9.54834C40.2003 9.83196 40.4026 10.1717 40.524 10.5429C40.6454 10.9142 40.6829 11.3078 40.6338 11.6953C40.6338 13.6016 39.6035 14.6973 37.8262 14.6973H35.6709V8.73046H37.8262ZM36.5976 13.8535H37.7226C38.0011 13.8701 38.2797 13.8245 38.5382 13.7198C38.7967 13.6152 39.0287 13.4543 39.2172 13.2487C39.4057 13.0432 39.546 12.7981 39.6278 12.5315C39.7097 12.2649 39.7311 11.9834 39.6904 11.7075C39.7281 11.4326 39.7046 11.1529 39.6215 10.8882C39.5383 10.6235 39.3977 10.3805 39.2096 10.1766C39.0216 9.97267 38.7907 9.81286 38.5337 9.70862C38.2766 9.60439 37.9996 9.5583 37.7226 9.57367H36.5976V13.8535Z" fill="white"/>
<path d="M41.6807 12.4438C41.6523 12.1479 41.6862 11.8493 41.78 11.5672C41.8739 11.2852 42.0256 11.0258 42.2256 10.8059C42.4255 10.5859 42.6692 10.4101 42.9411 10.2898C43.2129 10.1696 43.5069 10.1074 43.8042 10.1074C44.1015 10.1074 44.3954 10.1696 44.6673 10.2898C44.9391 10.4101 45.1829 10.5859 45.3828 10.8059C45.5827 11.0258 45.7345 11.2852 45.8283 11.5672C45.9222 11.8493 45.956 12.1479 45.9277 12.4438C45.9566 12.74 45.9231 13.039 45.8295 13.3215C45.7359 13.6041 45.5843 13.8639 45.3843 14.0843C45.1843 14.3047 44.9404 14.4808 44.6683 14.6014C44.3961 14.7219 44.1018 14.7842 43.8042 14.7842C43.5066 14.7842 43.2122 14.7219 42.9401 14.6014C42.668 14.4808 42.4241 14.3047 42.2241 14.0843C42.0241 13.8639 41.8724 13.6041 41.7788 13.3215C41.6853 13.039 41.6518 12.74 41.6807 12.4438ZM45.0137 12.4438C45.0137 11.4677 44.5752 10.8969 43.8057 10.8969C43.0332 10.8969 42.5987 11.4677 42.5987 12.4438C42.5987 13.4277 43.0332 13.9941 43.8057 13.9941C44.5752 13.9941 45.0137 13.4238 45.0137 12.4438H45.0137Z" fill="white"/>
<path d="M51.5732 14.6972H50.6514L49.7207 11.3808H49.6504L48.7236 14.6972H47.8105L46.5693 10.1943H47.4707L48.2773 13.6303H48.3438L49.2695 10.1943H50.1221L51.0479 13.6303H51.1182L51.9209 10.1943H52.8096L51.5732 14.6972Z" fill="white"/>
<path d="M53.8535 10.1938H54.709V10.9092H54.7754C54.888 10.6522 55.0781 10.4369 55.3189 10.2931C55.5598 10.1493 55.8395 10.0842 56.1191 10.1069C56.3382 10.0904 56.5582 10.1235 56.7628 10.2036C56.9674 10.2837 57.1514 10.4088 57.3011 10.5696C57.4508 10.7305 57.5623 10.9229 57.6275 11.1327C57.6927 11.3426 57.7099 11.5644 57.6777 11.7817V14.6967H56.7891V12.0049C56.7891 11.2812 56.4746 10.9214 55.8174 10.9214C55.6686 10.9144 55.5201 10.9398 55.3821 10.9956C55.244 11.0514 55.1197 11.1364 55.0175 11.2448C54.9154 11.3532 54.8379 11.4824 54.7904 11.6235C54.7429 11.7647 54.7264 11.9144 54.7422 12.0625V14.6968H53.8535L53.8535 10.1938Z" fill="white"/>
<path d="M59.0938 8.43646H59.9824V14.6972H59.0938V8.43646Z" fill="white"/>
<path d="M61.2178 12.4438C61.1895 12.1479 61.2234 11.8493 61.3172 11.5672C61.4111 11.2851 61.5629 11.0258 61.7628 10.8058C61.9628 10.5858 62.2065 10.41 62.4784 10.2898C62.7503 10.1695 63.0443 10.1074 63.3416 10.1074C63.6388 10.1074 63.9328 10.1695 64.2047 10.2898C64.4766 10.41 64.7203 10.5858 64.9203 10.8058C65.1202 11.0258 65.272 11.2851 65.3659 11.5672C65.4597 11.8493 65.4936 12.1479 65.4653 12.4438C65.4941 12.7401 65.4607 13.039 65.367 13.3216C65.2734 13.6041 65.1217 13.8639 64.9217 14.0843C64.7217 14.3047 64.4778 14.4808 64.2057 14.6014C63.9335 14.7219 63.6392 14.7842 63.3416 14.7842C63.0439 14.7842 62.7496 14.7219 62.4774 14.6014C62.2053 14.4808 61.9614 14.3047 61.7614 14.0843C61.5614 13.8639 61.4097 13.6041 61.3161 13.3216C61.2224 13.039 61.189 12.7401 61.2178 12.4438ZM64.5508 12.4438C64.5508 11.4678 64.1123 10.897 63.3428 10.897C62.5703 10.897 62.1358 11.4678 62.1358 12.4438C62.1358 13.4277 62.5703 13.9941 63.3428 13.9941C64.1123 13.9941 64.5508 13.4238 64.5508 12.4438H64.5508Z" fill="white"/>
<path d="M66.4009 13.4238C66.4009 12.6132 67.0044 12.1459 68.0757 12.0795L69.2954 12.0092V11.6205C69.2954 11.145 68.981 10.8764 68.3735 10.8764C67.8774 10.8764 67.5337 11.0585 67.4351 11.3769H66.5747C66.6655 10.6035 67.3931 10.1074 68.4146 10.1074C69.5435 10.1074 70.1802 10.6694 70.1802 11.6205V14.6972H69.3247V14.0644H69.2544C69.1117 14.2914 68.9113 14.4764 68.6737 14.6006C68.436 14.7249 68.1697 14.7838 67.9019 14.7714C67.7128 14.7911 67.5218 14.7709 67.341 14.7122C67.1602 14.6535 66.9938 14.5576 66.8524 14.4306C66.711 14.3036 66.5977 14.1484 66.52 13.975C66.4422 13.8016 66.4016 13.6138 66.4009 13.4238ZM69.2954 13.039V12.6625L68.1958 12.7328C67.5757 12.7743 67.2944 12.9853 67.2944 13.3823C67.2944 13.7875 67.646 14.0234 68.1294 14.0234C68.2711 14.0377 68.4142 14.0234 68.5502 13.9813C68.6862 13.9392 68.8123 13.8702 68.9211 13.7784C69.0299 13.6865 69.1191 13.5737 69.1834 13.4467C69.2477 13.3197 69.2858 13.181 69.2954 13.039Z" fill="white"/>
<path d="M71.3481 12.4438C71.3481 11.021 72.0796 10.1196 73.2173 10.1196C73.4987 10.1066 73.778 10.174 74.0225 10.3139C74.267 10.4538 74.4667 10.6604 74.5981 10.9096H74.6646V8.43646H75.5532V14.6972H74.7017V13.9858H74.6314C74.4897 14.2333 74.2831 14.4373 74.0339 14.5758C73.7846 14.7143 73.5022 14.7819 73.2173 14.7714C72.0718 14.7715 71.3481 13.8701 71.3481 12.4438ZM72.2661 12.4438C72.2661 13.3989 72.7163 13.9736 73.4693 13.9736C74.2183 13.9736 74.6812 13.3906 74.6812 12.4477C74.6812 11.5092 74.2134 10.9179 73.4693 10.9179C72.7212 10.9179 72.2661 11.4965 72.2661 12.4438H72.2661Z" fill="white"/>
<path d="M79.23 12.4438C79.2017 12.1479 79.2355 11.8493 79.3294 11.5672C79.4232 11.2852 79.575 11.0258 79.7749 10.8059C79.9748 10.5859 80.2186 10.4101 80.4904 10.2898C80.7623 10.1696 81.0563 10.1074 81.3535 10.1074C81.6508 10.1074 81.9448 10.1696 82.2166 10.2898C82.4885 10.4101 82.7322 10.5859 82.9321 10.8059C83.1321 11.0258 83.2838 11.2852 83.3777 11.5672C83.4715 11.8493 83.5054 12.1479 83.4771 12.4438C83.5059 12.74 83.4725 13.039 83.3789 13.3215C83.2853 13.6041 83.1336 13.8639 82.9336 14.0843C82.7336 14.3047 82.4897 14.4808 82.2176 14.6014C81.9455 14.7219 81.6511 14.7842 81.3535 14.7842C81.0559 14.7842 80.7616 14.7219 80.4894 14.6014C80.2173 14.4808 79.9734 14.3047 79.7734 14.0843C79.5734 13.8639 79.4218 13.6041 79.3282 13.3215C79.2346 13.039 79.2011 12.74 79.23 12.4438ZM82.563 12.4438C82.563 11.4677 82.1245 10.8969 81.355 10.8969C80.5825 10.8969 80.148 11.4677 80.148 12.4438C80.148 13.4277 80.5826 13.9941 81.355 13.9941C82.1245 13.9941 82.563 13.4238 82.563 12.4438Z" fill="white"/>
<path d="M84.6694 10.1938H85.5249V10.9092H85.5913C85.704 10.6522 85.894 10.4369 86.1348 10.2931C86.3757 10.1493 86.6555 10.0842 86.9351 10.1069C87.1542 10.0904 87.3742 10.1235 87.5788 10.2036C87.7834 10.2837 87.9673 10.4088 88.117 10.5696C88.2667 10.7305 88.3783 10.9229 88.4435 11.1327C88.5087 11.3426 88.5258 11.5644 88.4937 11.7817V14.6967H87.605V12.0049C87.605 11.2812 87.2905 10.9214 86.6333 10.9214C86.4846 10.9144 86.336 10.9398 86.198 10.9956C86.0599 11.0514 85.9356 11.1364 85.8335 11.2448C85.7313 11.3532 85.6539 11.4824 85.6063 11.6235C85.5588 11.7647 85.5423 11.9144 85.5581 12.0625V14.6968H84.6694V10.1938Z" fill="white"/>
<path d="M93.5151 9.07318V10.2148H94.4907V10.9633H93.5151V13.2788C93.5151 13.7504 93.7095 13.957 94.1519 13.957C94.2651 13.9566 94.3783 13.9498 94.4907 13.9365V14.6767C94.3311 14.7052 94.1694 14.7204 94.0073 14.7221C93.019 14.7221 92.6255 14.3744 92.6255 13.5063V10.9633H91.9106V10.2147H92.6255V9.07318H93.5151Z" fill="white"/>
<path d="M95.7046 8.43646H96.5854V10.9179H96.6558C96.7739 10.6586 96.9691 10.442 97.2148 10.2977C97.4605 10.1533 97.7447 10.0882 98.0288 10.1113C98.2467 10.0994 98.4646 10.1358 98.6669 10.2178C98.8692 10.2999 99.0508 10.4256 99.199 10.5859C99.3471 10.7462 99.458 10.9373 99.5238 11.1454C99.5896 11.3536 99.6086 11.5736 99.5795 11.79V14.6972H98.69V12.0092C98.69 11.29 98.355 10.9257 97.7271 10.9257C97.5743 10.9132 97.4207 10.9342 97.2769 10.9872C97.1332 11.0403 97.0027 11.1241 96.8947 11.2329C96.7867 11.3416 96.7038 11.4726 96.6517 11.6168C96.5997 11.7609 96.5797 11.9147 96.5933 12.0673V14.6972H95.7046L95.7046 8.43646Z" fill="white"/>
<path d="M104.761 13.4814C104.641 13.8929 104.379 14.2489 104.022 14.4871C103.666 14.7252 103.236 14.8304 102.81 14.7841C102.513 14.792 102.219 14.7351 101.946 14.6176C101.674 14.5001 101.43 14.3247 101.232 14.1035C101.034 13.8824 100.887 13.6208 100.8 13.337C100.713 13.0532 100.689 12.7539 100.73 12.4599C100.69 12.165 100.715 11.8651 100.801 11.5804C100.888 11.2958 101.034 11.033 101.231 10.8099C101.428 10.5868 101.671 10.4087 101.942 10.2875C102.214 10.1663 102.509 10.1048 102.806 10.1074C104.059 10.1074 104.815 10.9634 104.815 12.3774V12.6875H101.635V12.7373C101.621 12.9025 101.642 13.0688 101.696 13.2256C101.75 13.3823 101.837 13.5261 101.95 13.6475C102.062 13.769 102.2 13.8655 102.352 13.9309C102.504 13.9963 102.669 14.0291 102.834 14.0273C103.047 14.0528 103.262 14.0145 103.453 13.9173C103.644 13.8201 103.801 13.6683 103.906 13.4814L104.761 13.4814ZM101.635 12.0302H103.91C103.921 11.8791 103.9 11.7273 103.849 11.5846C103.798 11.4419 103.718 11.3114 103.614 11.2015C103.509 11.0917 103.383 11.0049 103.243 10.9467C103.103 10.8885 102.953 10.8603 102.801 10.8637C102.648 10.8618 102.495 10.8907 102.353 10.9486C102.21 11.0065 102.081 11.0924 101.972 11.2011C101.864 11.3098 101.778 11.4392 101.72 11.5816C101.662 11.724 101.633 11.8765 101.635 12.0302H101.635Z" fill="white"/>
</svg>
