<svg width="320" height="64" viewBox="0 0 320 64" fill="none" xmlns="http://www.w3.org/2000/svg">
<path d="M37.4078 48H50.3256L18.3257 16H5.40784L37.4078 48Z" fill="#475569"/>
<path d="M24.9622 16L55.8096 46.8474V16H47.4617V25.7391L37.7225 16L24.9622 16Z" fill="#475569"/>
<path d="M0 17.0713V47.9999H8.34782V38.2607L18.0869 47.9999H30.9287L0 17.0713Z" fill="#475569"/>
<path d="M72.2705 25.8555L67.6299 40H63.8916L70.2314 22.9375H72.6103L72.2705 25.8555ZM76.126 40L71.4736 25.8555L71.0986 22.9375H73.501L79.876 40H76.126ZM75.915 33.6484V36.4023H66.9033V33.6484H75.915ZM84.6221 30.0859V40H81.2471V27.3203H84.4228L84.6221 30.0859ZM88.4424 27.2383L88.3838 30.3672C88.2197 30.3438 88.0205 30.3242 87.7861 30.3086C87.5596 30.2852 87.3525 30.2734 87.165 30.2734C86.6885 30.2734 86.2744 30.3359 85.9228 30.4609C85.5791 30.5781 85.29 30.7539 85.0557 30.9883C84.8291 31.2227 84.6572 31.5078 84.54 31.8438C84.4307 32.1797 84.3682 32.5625 84.3525 32.9922L83.6728 32.7812C83.6728 31.9609 83.7549 31.207 83.9189 30.5195C84.083 29.8242 84.3213 29.2188 84.6338 28.7031C84.9541 28.1875 85.3447 27.7891 85.8057 27.5078C86.2666 27.2266 86.7939 27.0859 87.3877 27.0859C87.5752 27.0859 87.7666 27.1016 87.9619 27.1328C88.1572 27.1562 88.3174 27.1914 88.4424 27.2383ZM96.833 27.3203V29.7109H89.4502V27.3203H96.833ZM91.2783 24.1914H94.6533V36.1797C94.6533 36.5469 94.7002 36.8281 94.7939 37.0234C94.8955 37.2188 95.0439 37.3555 95.2393 37.4336C95.4346 37.5039 95.6807 37.5391 95.9775 37.5391C96.1885 37.5391 96.376 37.5312 96.54 37.5156C96.7119 37.4922 96.8564 37.4688 96.9736 37.4453L96.9853 39.9297C96.6963 40.0234 96.3838 40.0977 96.0478 40.1523C95.7119 40.207 95.3408 40.2344 94.9346 40.2344C94.1924 40.2344 93.5439 40.1133 92.9893 39.8711C92.4424 39.6211 92.0205 39.2227 91.7236 38.6758C91.4268 38.1289 91.2783 37.4102 91.2783 36.5195V24.1914ZM105.118 36.4375L109.138 22.9375H113.052L107.11 40H104.532L105.118 36.4375ZM101.415 22.9375L105.423 36.4375L106.032 40H103.431L97.5244 22.9375H101.415ZM119.755 40.2344C118.771 40.2344 117.888 40.0781 117.106 39.7656C116.325 39.4453 115.661 39.0039 115.114 38.4414C114.575 37.8789 114.161 37.2266 113.872 36.4844C113.583 35.7344 113.438 34.9375 113.438 34.0938V33.625C113.438 32.6641 113.575 31.7852 113.849 30.9883C114.122 30.1914 114.513 29.5 115.021 28.9141C115.536 28.3281 116.161 27.8789 116.896 27.5664C117.63 27.2461 118.458 27.0859 119.38 27.0859C120.278 27.0859 121.075 27.2344 121.771 27.5312C122.466 27.8281 123.048 28.25 123.517 28.7969C123.993 29.3438 124.353 30 124.595 30.7656C124.837 31.5234 124.958 32.3672 124.958 33.2969V34.7031H114.88V32.4531H121.642V32.1953C121.642 31.7266 121.556 31.3086 121.384 30.9414C121.22 30.5664 120.97 30.2695 120.634 30.0508C120.298 29.832 119.868 29.7227 119.345 29.7227C118.899 29.7227 118.517 29.8203 118.196 30.0156C117.876 30.2109 117.614 30.4844 117.411 30.8359C117.216 31.1875 117.067 31.6016 116.966 32.0781C116.872 32.5469 116.825 33.0625 116.825 33.625V34.0938C116.825 34.6016 116.896 35.0703 117.036 35.5C117.185 35.9297 117.392 36.3008 117.657 36.6133C117.931 36.9258 118.259 37.168 118.642 37.3398C119.032 37.5117 119.474 37.5977 119.966 37.5977C120.575 37.5977 121.142 37.4805 121.665 37.2461C122.196 37.0039 122.653 36.6406 123.036 36.1562L124.677 37.9375C124.411 38.3203 124.048 38.6875 123.587 39.0391C123.134 39.3906 122.587 39.6797 121.946 39.9062C121.306 40.125 120.575 40.2344 119.755 40.2344ZM130.185 30.0273V40H126.81V27.3203H129.974L130.185 30.0273ZM129.692 33.2148H128.778C128.778 32.2773 128.899 31.4336 129.142 30.6836C129.384 29.9258 129.724 29.2812 130.161 28.75C130.599 28.2109 131.118 27.8008 131.72 27.5195C132.329 27.2305 133.009 27.0859 133.759 27.0859C134.353 27.0859 134.896 27.1719 135.388 27.3438C135.88 27.5156 136.302 27.7891 136.653 28.1641C137.013 28.5391 137.286 29.0352 137.474 29.6523C137.669 30.2695 137.767 31.0234 137.767 31.9141V40H134.368V31.9023C134.368 31.3398 134.29 30.9023 134.134 30.5898C133.978 30.2773 133.747 30.0586 133.442 29.9336C133.146 29.8008 132.778 29.7344 132.341 29.7344C131.888 29.7344 131.493 29.8242 131.157 30.0039C130.829 30.1836 130.556 30.4336 130.337 30.7539C130.126 31.0664 129.966 31.4336 129.856 31.8555C129.747 32.2773 129.692 32.7305 129.692 33.2148ZM147.833 36.9648V27.3203H151.208V40H148.032L147.833 36.9648ZM148.208 34.3633L149.204 34.3398C149.204 35.1836 149.106 35.9688 148.911 36.6953C148.716 37.4141 148.423 38.0391 148.032 38.5703C147.642 39.0938 147.149 39.5039 146.556 39.8008C145.962 40.0898 145.263 40.2344 144.458 40.2344C143.841 40.2344 143.271 40.1484 142.747 39.9766C142.231 39.7969 141.786 39.5195 141.411 39.1445C141.044 38.7617 140.755 38.2734 140.544 37.6797C140.341 37.0781 140.239 36.3555 140.239 35.5117V27.3203H143.614V35.5352C143.614 35.9102 143.657 36.2266 143.743 36.4844C143.837 36.7422 143.966 36.9531 144.13 37.1172C144.294 37.2812 144.485 37.3984 144.704 37.4688C144.931 37.5391 145.181 37.5742 145.454 37.5742C146.149 37.5742 146.696 37.4336 147.095 37.1523C147.501 36.8711 147.786 36.4883 147.95 36.0039C148.122 35.5117 148.208 34.9648 148.208 34.3633ZM159.622 40.2344C158.638 40.2344 157.755 40.0781 156.974 39.7656C156.192 39.4453 155.528 39.0039 154.981 38.4414C154.442 37.8789 154.028 37.2266 153.739 36.4844C153.45 35.7344 153.306 34.9375 153.306 34.0938V33.625C153.306 32.6641 153.442 31.7852 153.716 30.9883C153.989 30.1914 154.38 29.5 154.888 28.9141C155.403 28.3281 156.028 27.8789 156.763 27.5664C157.497 27.2461 158.325 27.0859 159.247 27.0859C160.146 27.0859 160.942 27.2344 161.638 27.5312C162.333 27.8281 162.915 28.25 163.384 28.7969C163.86 29.3438 164.22 30 164.462 30.7656C164.704 31.5234 164.825 32.3672 164.825 33.2969V34.7031H154.747V32.4531H161.509V32.1953C161.509 31.7266 161.423 31.3086 161.251 30.9414C161.087 30.5664 160.837 30.2695 160.501 30.0508C160.165 29.832 159.735 29.7227 159.212 29.7227C158.767 29.7227 158.384 29.8203 158.063 30.0156C157.743 30.2109 157.481 30.4844 157.278 30.8359C157.083 31.1875 156.935 31.6016 156.833 32.0781C156.739 32.5469 156.692 33.0625 156.692 33.625V34.0938C156.692 34.6016 156.763 35.0703 156.903 35.5C157.052 35.9297 157.259 36.3008 157.524 36.6133C157.798 36.9258 158.126 37.168 158.509 37.3398C158.899 37.5117 159.341 37.5977 159.833 37.5977C160.442 37.5977 161.009 37.4805 161.532 37.2461C162.063 37.0039 162.521 36.6406 162.903 36.1562L164.544 37.9375C164.278 38.3203 163.915 38.6875 163.454 39.0391C163.001 39.3906 162.454 39.6797 161.813 39.9062C161.173 40.125 160.442 40.2344 159.622 40.2344Z" fill="#475569"/>
</svg>
