<svg width="135" height="40" viewBox="0 0 135 40" fill="none" xmlns="http://www.w3.org/2000/svg">
<path d="M130 0H5C2.23858 0 0 2.23858 0 5V35C0 37.7614 2.23858 40 5 40H130C132.761 40 135 37.7614 135 35V5C135 2.23858 132.761 0 130 0Z" fill="black"/>
<path d="M130 0.8C131.114 0.8 132.182 1.2425 132.97 2.03015C133.758 2.8178 134.2 3.88609 134.2 5V35C134.2 36.1139 133.758 37.1822 132.97 37.9698C132.182 38.7575 131.114 39.2 130 39.2H5C3.88609 39.2 2.8178 38.7575 2.03015 37.9698C1.2425 37.1822 0.8 36.1139 0.8 35V5C0.8 3.88609 1.2425 2.8178 2.03015 2.03015C2.8178 1.2425 3.88609 0.8 5 0.8H130ZM130 0H5C3.67392 0 2.40215 0.526784 1.46447 1.46447C0.526784 2.40215 0 3.67392 0 5V35C0 36.3261 0.526784 37.5979 1.46447 38.5355C2.40215 39.4732 3.67392 40 5 40H130C131.326 40 132.598 39.4732 133.536 38.5355C134.473 37.5979 135 36.3261 135 35V5C135 3.67392 134.473 2.40215 133.536 1.46447C132.598 0.526784 131.326 0 130 0Z" fill="#A6A6A6"/>
<path d="M44.3757 10.4858H46.4666V13.3869C46.1529 13.4933 45.8297 13.5724 45.4969 13.6242C45.1668 13.676 44.7972 13.702 44.388 13.702C43.7661 13.702 43.2409 13.5778 42.8127 13.3296C42.3871 13.0814 42.0639 12.7281 41.8429 12.2698C41.622 11.8088 41.5115 11.2619 41.5115 10.629C41.5115 10.0098 41.6329 9.46967 41.8756 9.00866C42.1212 8.54765 42.4744 8.1903 42.9354 7.93661C43.3992 7.68019 43.9556 7.55198 44.6049 7.55198C44.9377 7.55198 45.2527 7.58335 45.5501 7.64609C45.8501 7.70611 46.1284 7.79203 46.3848 7.90388L46.1188 8.50946C45.8979 8.41399 45.6537 8.33215 45.3864 8.26396C45.1218 8.19576 44.8477 8.16166 44.564 8.16166C44.0757 8.16166 43.6569 8.26259 43.3078 8.46445C42.9613 8.66632 42.6954 8.95138 42.5099 9.31964C42.3271 9.6879 42.2357 10.1244 42.2357 10.629C42.2357 11.1282 42.3162 11.5633 42.4771 11.9343C42.6381 12.3026 42.889 12.589 43.23 12.7936C43.571 12.9982 44.0102 13.1005 44.5476 13.1005C44.8176 13.1005 45.0495 13.0855 45.2432 13.0554C45.4369 13.0227 45.6128 12.9845 45.771 12.9409V11.1078H44.3757V10.4858ZM51.2459 13.6201H47.9151V7.63791H51.2459V8.25168H48.6107V10.1871H51.0945V10.7927H48.6107V13.0063H51.2459V13.6201ZM54.4088 13.6201H53.7091V8.25168H51.8269V7.63791H56.2829V8.25168H54.4088V13.6201ZM59.364 13.6201V7.63791H60.0596V13.6201H59.364ZM63.5417 13.6201H62.842V8.25168H60.9598V7.63791H65.4158V8.25168H63.5417V13.6201ZM73.6853 10.6208C73.6853 11.0818 73.6266 11.5019 73.5093 11.8811C73.392 12.2575 73.2174 12.5822 72.9856 12.855C72.7564 13.125 72.4714 13.3337 72.1304 13.481C71.7894 13.6283 71.3939 13.702 70.9438 13.702C70.48 13.702 70.0749 13.6283 69.7285 13.481C69.3848 13.3337 69.0984 13.1236 68.8692 12.8509C68.6428 12.5781 68.4723 12.2521 68.3578 11.8729C68.2459 11.4937 68.19 11.0737 68.19 10.6126C68.19 10.0016 68.2909 9.46558 68.4928 9.00457C68.6946 8.54356 69.0002 8.18485 69.4093 7.92843C69.8213 7.67201 70.3368 7.5438 70.956 7.5438C71.548 7.5438 72.0458 7.67064 72.4496 7.92434C72.856 8.17803 73.1629 8.53538 73.3702 8.99639C73.5803 9.45467 73.6853 9.99615 73.6853 10.6208ZM68.9224 10.6208C68.9224 11.1282 68.9947 11.5674 69.1393 11.9384C69.2839 12.3094 69.5048 12.5958 69.8022 12.7977C70.1022 12.9995 70.4828 13.1005 70.9438 13.1005C71.4075 13.1005 71.7867 12.9995 72.0813 12.7977C72.3786 12.5958 72.5982 12.3094 72.7401 11.9384C72.8819 11.5674 72.9528 11.1282 72.9528 10.6208C72.9528 9.84884 72.7905 9.24599 72.4659 8.81226C72.144 8.3758 71.6407 8.15757 70.956 8.15757C70.4923 8.15757 70.1104 8.25714 69.8103 8.45627C69.5103 8.6554 69.2866 8.9391 69.1393 9.30736C68.9947 9.6729 68.9224 10.1107 68.9224 10.6208ZM79.6961 13.6201H78.8941L75.633 8.59539H75.6002C75.6084 8.72906 75.618 8.88182 75.6289 9.05367C75.6398 9.2228 75.648 9.4042 75.6534 9.59788C75.6616 9.78883 75.6657 9.98387 75.6657 10.183V13.6201H75.0192V7.63791H75.8171L79.066 12.6463H79.0946C79.0892 12.5508 79.0824 12.4158 79.0742 12.2412C79.066 12.0639 79.0578 11.8743 79.0496 11.6724C79.0442 11.4678 79.0414 11.2782 79.0414 11.1037V7.63791H79.6961V13.6201Z" fill="white"/>
<path d="M44.3757 10.4858V10.3858H44.2757V10.4858H44.3757ZM46.4666 10.4858H46.5666V10.3858H46.4666V10.4858ZM46.4666 13.3869L46.4988 13.4816L46.5666 13.4586V13.3869H46.4666ZM45.4969 13.6242L45.4815 13.5254L45.4814 13.5254L45.4969 13.6242ZM42.8127 13.3296L42.7623 13.416L42.7625 13.4161L42.8127 13.3296ZM41.8429 12.2698L41.7527 12.313L41.7528 12.3133L41.8429 12.2698ZM41.8756 9.00866L41.7874 8.96166L41.7872 8.96207L41.8756 9.00866ZM42.9354 7.93661L42.9836 8.02422L42.9838 8.02412L42.9354 7.93661ZM45.5501 7.64609L45.5294 7.74394L45.5305 7.74415L45.5501 7.64609ZM46.3848 7.90388L46.4764 7.94409L46.5167 7.8523L46.4248 7.81222L46.3848 7.90388ZM46.1188 8.50946L46.0792 8.60126L46.1704 8.64069L46.2104 8.54967L46.1188 8.50946ZM45.3864 8.26396L45.3614 8.36079L45.3617 8.36085L45.3864 8.26396ZM43.3078 8.46445L43.2577 8.37788L43.2574 8.37805L43.3078 8.46445ZM42.5099 9.31964L42.4206 9.27465L42.4203 9.27518L42.5099 9.31964ZM42.4771 11.9343L42.3854 11.9741L42.3855 11.9743L42.4771 11.9343ZM43.23 12.7936L43.1786 12.8793L43.23 12.7936ZM45.2432 13.0554L45.2585 13.1543L45.2599 13.1541L45.2432 13.0554ZM45.771 12.9409L45.7976 13.0373L45.871 13.017V12.9409H45.771ZM45.771 11.1078H45.871V11.0078H45.771V11.1078ZM44.3757 11.1078H44.2757V11.2078H44.3757V11.1078ZM44.3757 10.5858H46.4666V10.3858H44.3757V10.5858ZM46.3666 10.4858V13.3869H46.5666V10.4858H46.3666ZM46.4345 13.2922C46.1264 13.3967 45.8087 13.4744 45.4815 13.5254L45.5123 13.723C45.8507 13.6703 46.1795 13.5899 46.4988 13.4816L46.4345 13.2922ZM45.4814 13.5254C45.1574 13.5763 44.7931 13.602 44.388 13.602V13.802C44.8013 13.802 45.1762 13.7758 45.5124 13.723L45.4814 13.5254ZM44.388 13.602C43.7792 13.602 43.2724 13.4805 42.8628 13.2431L42.7625 13.4161C43.2095 13.6752 43.7529 13.802 44.388 13.802V13.602ZM42.8631 13.2432C42.4553 13.0054 42.1456 12.6673 41.933 12.2264L41.7528 12.3133C41.9821 12.7889 42.3189 13.1574 42.7623 13.416L42.8631 13.2432ZM41.9331 12.2266C41.7199 11.7819 41.6115 11.2504 41.6115 10.629H41.4115C41.4115 11.2734 41.524 11.8357 41.7527 12.313L41.9331 12.2266ZM41.6115 10.629C41.6115 10.023 41.7302 9.49943 41.9641 9.05526L41.7872 8.96207C41.5355 9.43992 41.4115 9.9966 41.4115 10.629H41.6115ZM41.9639 9.05567C42.2002 8.61193 42.5395 8.26863 42.9836 8.02422L42.8872 7.849C42.4093 8.11198 42.0421 8.48338 41.7874 8.96166L41.9639 9.05567ZM42.9838 8.02412C43.4297 7.77755 43.9688 7.65198 44.6049 7.65198V7.45198C43.9425 7.45198 43.3686 7.58284 42.887 7.8491L42.9838 8.02412ZM44.6049 7.65198C44.9314 7.65198 45.2395 7.68276 45.5294 7.74394L45.5707 7.54825C45.266 7.48395 44.944 7.45198 44.6049 7.45198V7.65198ZM45.5305 7.74415C45.8242 7.80289 46.0955 7.8868 46.3448 7.99554L46.4248 7.81222C46.1612 7.69727 45.8761 7.60932 45.5697 7.54804L45.5305 7.74415ZM46.2932 7.86367L46.0273 8.46925L46.2104 8.54967L46.4764 7.94409L46.2932 7.86367ZM46.1585 8.41767C45.9321 8.31982 45.6828 8.23637 45.4111 8.16706L45.3617 8.36085C45.6246 8.42793 45.8637 8.50815 46.0792 8.60126L46.1585 8.41767ZM45.4114 8.16712C45.1383 8.09674 44.8557 8.06166 44.564 8.06166V8.26166C44.8396 8.26166 45.1053 8.29477 45.3614 8.36079L45.4114 8.16712ZM44.564 8.06166C44.0618 8.06166 43.625 8.16554 43.2577 8.37788L43.3578 8.55103C43.6889 8.35964 44.0895 8.26166 44.564 8.26166V8.06166ZM43.2574 8.37805C42.8938 8.58995 42.6145 8.88962 42.4206 9.27465L42.5992 9.36462C42.7762 9.01313 43.0289 8.74269 43.3581 8.55086L43.2574 8.37805ZM42.4203 9.27518C42.2293 9.66005 42.1357 10.1124 42.1357 10.629H42.3357C42.3357 10.1363 42.4249 9.71575 42.5994 9.36409L42.4203 9.27518ZM42.1357 10.629C42.1357 11.1388 42.2179 11.588 42.3854 11.9741L42.5689 11.8945C42.4145 11.5386 42.3357 11.1176 42.3357 10.629H42.1357ZM42.3855 11.9743C42.5547 12.3614 42.8196 12.6639 43.1786 12.8793L43.2815 12.7078C42.9585 12.514 42.7215 12.2437 42.5688 11.8943L42.3855 11.9743ZM43.1786 12.8793C43.5396 13.096 43.9982 13.2005 44.5476 13.2005V13.0005C44.0222 13.0005 43.6024 12.9004 43.2815 12.7078L43.1786 12.8793ZM44.5476 13.2005C44.821 13.2005 45.0583 13.1853 45.2585 13.1543L45.2279 12.9566C45.0408 12.9856 44.8143 13.0005 44.5476 13.0005V13.2005ZM45.2599 13.1541C45.4563 13.1209 45.6356 13.082 45.7976 13.0373L45.7444 12.8445C45.5901 12.8871 45.4175 12.9246 45.2265 12.9568L45.2599 13.1541ZM45.871 12.9409V11.1078H45.671V12.9409H45.871ZM45.771 11.0078H44.3757V11.2078H45.771V11.0078ZM44.4757 11.1078V10.4858H44.2757V11.1078H44.4757ZM51.2459 13.6201V13.7201H51.3459V13.6201H51.2459ZM47.9151 13.6201H47.8151V13.7201H47.9151V13.6201ZM47.9151 7.63791V7.53791H47.8151V7.63791H47.9151ZM51.2459 7.63791H51.3459V7.53791H51.2459V7.63791ZM51.2459 8.25168V8.35168H51.3459V8.25168H51.2459ZM48.6107 8.25168V8.15168H48.5107V8.25168H48.6107ZM48.6107 10.1871H48.5107V10.2871H48.6107V10.1871ZM51.0945 10.1871H51.1945V10.0871H51.0945V10.1871ZM51.0945 10.7927V10.8927H51.1945V10.7927H51.0945ZM48.6107 10.7927V10.6927H48.5107V10.7927H48.6107ZM48.6107 13.0063H48.5107V13.1063H48.6107V13.0063ZM51.2459 13.0063H51.3459V12.9063H51.2459V13.0063ZM51.2459 13.5201H47.9151V13.7201H51.2459V13.5201ZM48.0151 13.6201V7.63791H47.8151V13.6201H48.0151ZM47.9151 7.73791H51.2459V7.53791H47.9151V7.73791ZM51.1459 7.63791V8.25168H51.3459V7.63791H51.1459ZM51.2459 8.15168H48.6107V8.35168H51.2459V8.15168ZM48.5107 8.25168V10.1871H48.7107V8.25168H48.5107ZM48.6107 10.2871H51.0945V10.0871H48.6107V10.2871ZM50.9945 10.1871V10.7927H51.1945V10.1871H50.9945ZM51.0945 10.6927H48.6107V10.8927H51.0945V10.6927ZM48.5107 10.7927V13.0063H48.7107V10.7927H48.5107ZM48.6107 13.1063H51.2459V12.9063H48.6107V13.1063ZM51.1459 13.0063V13.6201H51.3459V13.0063H51.1459ZM54.4088 13.6201V13.7201H54.5088V13.6201H54.4088ZM53.7091 13.6201H53.6091V13.7201H53.7091V13.6201ZM53.7091 8.25168H53.8091V8.15168H53.7091V8.25168ZM51.8269 8.25168H51.7269V8.35168H51.8269V8.25168ZM51.8269 7.63791V7.53791H51.7269V7.63791H51.8269ZM56.2829 7.63791H56.3829V7.53791H56.2829V7.63791ZM56.2829 8.25168V8.35168H56.3829V8.25168H56.2829ZM54.4088 8.25168V8.15168H54.3088V8.25168H54.4088ZM54.4088 13.5201H53.7091V13.7201H54.4088V13.5201ZM53.8091 13.6201V8.25168H53.6091V13.6201H53.8091ZM53.7091 8.15168H51.8269V8.35168H53.7091V8.15168ZM51.9269 8.25168V7.63791H51.7269V8.25168H51.9269ZM51.8269 7.73791H56.2829V7.53791H51.8269V7.73791ZM56.1829 7.63791V8.25168H56.3829V7.63791H56.1829ZM56.2829 8.15168H54.4088V8.35168H56.2829V8.15168ZM54.3088 8.25168V13.6201H54.5088V8.25168H54.3088ZM59.364 13.6201H59.264V13.7201H59.364V13.6201ZM59.364 7.63791V7.53791H59.264V7.63791H59.364ZM60.0596 7.63791H60.1596V7.53791H60.0596V7.63791ZM60.0596 13.6201V13.7201H60.1596V13.6201H60.0596ZM59.464 13.6201V7.63791H59.264V13.6201H59.464ZM59.364 7.73791H60.0596V7.53791H59.364V7.73791ZM59.9596 7.63791V13.6201H60.1596V7.63791H59.9596ZM60.0596 13.5201H59.364V13.7201H60.0596V13.5201ZM63.5417 13.6201V13.7201H63.6417V13.6201H63.5417ZM62.842 13.6201H62.742V13.7201H62.842V13.6201ZM62.842 8.25168H62.942V8.15168H62.842V8.25168ZM60.9598 8.25168H60.8598V8.35168H60.9598V8.25168ZM60.9598 7.63791V7.53791H60.8598V7.63791H60.9598ZM65.4158 7.63791H65.5158V7.53791H65.4158V7.63791ZM65.4158 8.25168V8.35168H65.5158V8.25168H65.4158ZM63.5417 8.25168V8.15168H63.4417V8.25168H63.5417ZM63.5417 13.5201H62.842V13.7201H63.5417V13.5201ZM62.942 13.6201V8.25168H62.742V13.6201H62.942ZM62.842 8.15168H60.9598V8.35168H62.842V8.15168ZM61.0598 8.25168V7.63791H60.8598V8.25168H61.0598ZM60.9598 7.73791H65.4158V7.53791H60.9598V7.73791ZM65.3158 7.63791V8.25168H65.5158V7.63791H65.3158ZM65.4158 8.15168H63.5417V8.35168H65.4158V8.15168ZM63.4417 8.25168V13.6201H63.6417V8.25168H63.4417ZM73.5093 11.8811L73.6048 11.9109L73.6049 11.9107L73.5093 11.8811ZM72.9856 12.855L72.9094 12.7902L72.9093 12.7903L72.9856 12.855ZM72.1304 13.481L72.17 13.5728L72.1304 13.481ZM69.7285 13.481L69.6891 13.5729L69.6894 13.573L69.7285 13.481ZM68.8692 12.8509L68.7923 12.9147L68.7927 12.9152L68.8692 12.8509ZM68.3578 11.8729L68.2618 11.9012L68.262 11.9018L68.3578 11.8729ZM69.4093 7.92843L69.3565 7.84353L69.3562 7.84369L69.4093 7.92843ZM72.4496 7.92434L72.3963 8.00901L72.3966 8.00917L72.4496 7.92434ZM73.3702 8.99639L73.279 9.0374L73.2793 9.03805L73.3702 8.99639ZM69.8022 12.7977L69.746 12.8804L69.7463 12.8806L69.8022 12.7977ZM72.0813 12.7977L72.0251 12.7149L72.0248 12.7152L72.0813 12.7977ZM72.4659 8.81226L72.3854 8.87161L72.3859 8.87218L72.4659 8.81226ZM69.8103 8.45627L69.755 8.37295L69.8103 8.45627ZM69.1393 9.30736L69.0464 9.27022L69.0463 9.27058L69.1393 9.30736ZM73.5853 10.6208C73.5853 11.0734 73.5277 11.4833 73.4138 11.8516L73.6049 11.9107C73.7256 11.5205 73.7853 11.0903 73.7853 10.6208H73.5853ZM73.4139 11.8514C73.3002 12.2163 73.1317 12.5287 72.9094 12.7902L73.0618 12.9197C73.3032 12.6357 73.4839 12.2988 73.6048 11.9109L73.4139 11.8514ZM72.9093 12.7903C72.6906 13.048 72.4183 13.2477 72.0907 13.3892L72.17 13.5728C72.5244 13.4197 72.8222 13.202 73.0618 12.9196L72.9093 12.7903ZM72.0907 13.3892C71.7646 13.5301 71.3831 13.602 70.9438 13.602V13.802C71.4047 13.802 71.8142 13.7265 72.17 13.5728L72.0907 13.3892ZM70.9438 13.602C70.4904 13.602 70.0992 13.5299 69.7676 13.389L69.6894 13.573C70.0507 13.7267 70.4696 13.802 70.9438 13.802V13.602ZM69.7679 13.3891C69.4378 13.2476 69.1644 13.0467 68.9458 12.7865L68.7927 12.9152C69.0324 13.2005 69.3318 13.4198 69.6891 13.5729L69.7679 13.3891ZM68.9462 12.787C68.7292 12.5256 68.5646 12.2119 68.4535 11.844L68.262 11.9018C68.38 12.2923 68.5564 12.6305 68.7923 12.9147L68.9462 12.787ZM68.4537 11.8446C68.3449 11.476 68.29 11.0656 68.29 10.6126H68.09C68.09 11.0817 68.1469 11.5115 68.2618 11.9012L68.4537 11.8446ZM68.29 10.6126C68.29 10.0125 68.3891 9.49064 68.5844 9.04468L68.4012 8.96446C68.1927 9.44052 68.09 9.99069 68.09 10.6126H68.29ZM68.5844 9.04468C68.7786 8.60125 69.071 8.25845 69.4624 8.01316L69.3562 7.84369C68.9293 8.11125 68.6107 8.48587 68.4012 8.96446L68.5844 9.04468ZM69.4622 8.01332C69.8544 7.76916 70.3504 7.6438 70.956 7.6438V7.4438C70.3232 7.4438 69.7881 7.57485 69.3565 7.84353L69.4622 8.01332ZM70.956 7.6438C71.5337 7.6438 72.012 7.7675 72.3963 8.00901L72.5028 7.83966C72.0796 7.57379 71.5623 7.4438 70.956 7.4438V7.6438ZM72.3966 8.00917C72.7853 8.25177 73.0793 8.59342 73.279 9.0374L73.4614 8.95537C73.2464 8.47734 72.9267 8.10428 72.5025 7.8395L72.3966 8.00917ZM73.2793 9.03805C73.4821 9.48052 73.5853 10.0072 73.5853 10.6208H73.7853C73.7853 9.98512 73.6784 9.42881 73.4611 8.95472L73.2793 9.03805ZM68.8224 10.6208C68.8224 11.1374 68.896 11.5894 69.0461 11.9747L69.2325 11.9021C69.0934 11.5454 69.0224 11.1191 69.0224 10.6208H68.8224ZM69.0461 11.9747C69.1972 12.3624 69.4301 12.666 69.746 12.8804L69.8583 12.7149C69.5795 12.5257 69.3705 12.2563 69.2325 11.9021L69.0461 11.9747ZM69.7463 12.8806C70.0669 13.0963 70.4683 13.2005 70.9438 13.2005V13.0005C70.4972 13.0005 70.1375 12.9028 69.858 12.7147L69.7463 12.8806ZM70.9438 13.2005C71.4217 13.2005 71.8222 13.0964 72.1378 12.8802L72.0248 12.7152C71.7511 12.9027 71.3933 13.0005 70.9438 13.0005V13.2005ZM72.1375 12.8804C72.4535 12.6658 72.6851 12.3621 72.8335 11.9741L72.6467 11.9027C72.5113 12.2567 72.3038 12.5258 72.0251 12.7149L72.1375 12.8804ZM72.8335 11.9741C72.9807 11.589 73.0528 11.1372 73.0528 10.6208H72.8528C72.8528 11.1192 72.7831 11.5458 72.6467 11.9027L72.8335 11.9741ZM73.0528 10.6208C73.0528 9.83614 72.888 9.20934 72.546 8.75234L72.3859 8.87218C72.6931 9.28263 72.8528 9.86155 72.8528 10.6208H73.0528ZM72.5464 8.7529C72.2008 8.28426 71.6633 8.05757 70.956 8.05757V8.25757C71.6182 8.25757 72.0873 8.46734 72.3854 8.87161L72.5464 8.7529ZM70.956 8.05757C70.4782 8.05757 70.0756 8.1602 69.755 8.37295L69.8656 8.53959C70.1452 8.35407 70.5064 8.25757 70.956 8.25757V8.05757ZM69.755 8.37295C69.4364 8.58444 69.2005 8.88511 69.0464 9.27022L69.2321 9.3445C69.3727 8.99309 69.5842 8.72637 69.8656 8.53959L69.755 8.37295ZM69.0463 9.27058C68.8959 9.65074 68.8224 10.1017 68.8224 10.6208H69.0224C69.0224 10.1197 69.0935 9.69505 69.2323 9.34414L69.0463 9.27058ZM79.6961 13.6201V13.7201H79.7961V13.6201H79.6961ZM78.8941 13.6201L78.8102 13.6746L78.8398 13.7201H78.8941V13.6201ZM75.633 8.59539L75.7169 8.54095L75.6873 8.49539H75.633V8.59539ZM75.6002 8.59539V8.49539H75.4939L75.5004 8.6015L75.6002 8.59539ZM75.6289 9.05367L75.5291 9.06001L75.5291 9.06011L75.6289 9.05367ZM75.6534 9.59788L75.5535 9.6007L75.5535 9.60216L75.6534 9.59788ZM75.6657 13.6201V13.7201H75.7657V13.6201H75.6657ZM75.0192 13.6201H74.9192V13.7201H75.0192V13.6201ZM75.0192 7.63791V7.53791H74.9192V7.63791H75.0192ZM75.8171 7.63791L75.901 7.58349L75.8714 7.53791H75.8171V7.63791ZM79.066 12.6463L78.9821 12.7007L79.0117 12.7463H79.066V12.6463ZM79.0946 12.6463V12.7463H79.2005L79.1945 12.6406L79.0946 12.6463ZM79.0742 12.2412L78.9743 12.2458L78.9743 12.2459L79.0742 12.2412ZM79.0496 11.6724L78.9496 11.6751L78.9497 11.6765L79.0496 11.6724ZM79.0414 7.63791V7.53791H78.9414V7.63791H79.0414ZM79.6961 7.63791H79.7961V7.53791H79.6961V7.63791ZM79.6961 13.5201H78.8941V13.7201H79.6961V13.5201ZM78.978 13.5657L75.7169 8.54095L75.5491 8.64983L78.8102 13.6746L78.978 13.5657ZM75.633 8.49539H75.6002V8.69539H75.633V8.49539ZM75.5004 8.6015C75.5086 8.73526 75.5182 8.8881 75.5291 9.06001L75.7287 9.04734C75.7178 8.87554 75.7082 8.72285 75.7 8.58928L75.5004 8.6015ZM75.5291 9.06011C75.5399 9.22788 75.548 9.40806 75.5535 9.6007L75.7534 9.59507C75.7479 9.40035 75.7397 9.21772 75.7287 9.04723L75.5291 9.06011ZM75.5535 9.60216C75.5616 9.79163 75.5657 9.98524 75.5657 10.183H75.7657C75.7657 9.98251 75.7616 9.78603 75.7533 9.5936L75.5535 9.60216ZM75.5657 10.183V13.6201H75.7657V10.183H75.5657ZM75.6657 13.5201H75.0192V13.7201H75.6657V13.5201ZM75.1192 13.6201V7.63791H74.9192V13.6201H75.1192ZM75.0192 7.73791H75.8171V7.53791H75.0192V7.73791ZM75.7332 7.69233L78.9821 12.7007L79.1499 12.5918L75.901 7.58349L75.7332 7.69233ZM79.066 12.7463H79.0946V12.5463H79.066V12.7463ZM79.1945 12.6406C79.189 12.5456 79.1822 12.411 79.1741 12.2365L78.9743 12.2459C78.9825 12.4206 78.9893 12.556 78.9948 12.652L79.1945 12.6406ZM79.1741 12.2366C79.1659 12.0595 79.1577 11.8701 79.1495 11.6684L78.9497 11.6765C78.9579 11.8785 78.9661 12.0683 78.9743 12.2458L79.1741 12.2366ZM79.1496 11.6698C79.1441 11.4659 79.1414 11.2772 79.1414 11.1037H78.9414C78.9414 11.2793 78.9442 11.4698 78.9497 11.6751L79.1496 11.6698ZM79.1414 11.1037V7.63791H78.9414V11.1037H79.1414ZM79.0414 7.73791H79.6961V7.53791H79.0414V7.73791ZM79.5961 7.63791V13.6201H79.7961V7.63791H79.5961Z" fill="white"/>
<path d="M68.14 21.7499C67.2974 21.7519 66.4744 22.0037 65.7749 22.4734C65.0755 22.9432 64.531 23.6098 64.2104 24.3889C63.8898 25.1681 63.8075 26.0248 63.9738 26.8508C64.1401 27.6768 64.5476 28.4349 65.1448 29.0293C65.742 29.6236 66.502 30.0276 67.3287 30.19C68.1555 30.3524 69.0118 30.2661 69.7895 29.9418C70.5671 29.6175 71.2311 29.07 71.6976 28.3683C72.164 27.6667 72.412 26.8425 72.41 25.9999C72.4181 25.4379 72.3131 24.8799 72.1012 24.3593C71.8892 23.8386 71.5746 23.366 71.1762 22.9694C70.7778 22.5729 70.3037 22.2606 69.7821 22.051C69.2604 21.8415 68.702 21.7391 68.14 21.7499ZM68.14 28.5799C67.6236 28.616 67.1082 28.496 66.6609 28.2353C66.2137 27.9747 65.8552 27.5855 65.632 27.1184C65.4088 26.6512 65.3314 26.1278 65.4097 25.6161C65.4879 25.1043 65.7184 24.628 66.0709 24.249C66.4235 23.8699 66.882 23.6057 67.3867 23.4907C67.8915 23.3757 68.4192 23.4152 68.9012 23.604C69.3832 23.7929 69.7972 24.1223 70.0895 24.5496C70.3818 24.9769 70.5387 25.4822 70.54 25.9999C70.5561 26.3279 70.5063 26.6559 70.3937 26.9643C70.2811 27.2728 70.1078 27.5556 69.8841 27.7961C69.6604 28.0366 69.3909 28.2298 69.0913 28.3644C68.7918 28.499 68.4683 28.5723 68.14 28.5799ZM58.82 21.7499C57.9774 21.7519 57.1544 22.0037 56.4549 22.4734C55.7555 22.9432 55.211 23.6098 54.8904 24.3889C54.5698 25.1681 54.4875 26.0248 54.6538 26.8508C54.8201 27.6768 55.2276 28.4349 55.8248 29.0293C56.422 29.6236 57.182 30.0276 58.0087 30.19C58.8355 30.3524 59.6918 30.2661 60.4695 29.9418C61.2471 29.6175 61.9111 29.07 62.3776 28.3683C62.844 27.6667 63.0919 26.8425 63.09 25.9999C63.0981 25.4379 62.9931 24.8799 62.7812 24.3593C62.5692 23.8386 62.2546 23.366 61.8562 22.9694C61.4578 22.5729 60.9837 22.2606 60.4621 22.051C59.9404 21.8415 59.382 21.7391 58.82 21.7499ZM58.82 28.5799C58.3036 28.616 57.7882 28.496 57.3409 28.2353C56.8937 27.9747 56.5352 27.5855 56.312 27.1184C56.0888 26.6512 56.0114 26.1278 56.0897 25.6161C56.1679 25.1043 56.3984 24.628 56.7509 24.249C57.1035 23.8699 57.562 23.6057 58.0667 23.4907C58.5715 23.3757 59.0992 23.4152 59.5812 23.604C60.0632 23.7929 60.4772 24.1223 60.7695 24.5496C61.0618 24.9769 61.2187 25.4822 61.22 25.9999C61.2361 26.3279 61.1863 26.6559 61.0737 26.9643C60.9611 27.2728 60.7878 27.5556 60.5641 27.7961C60.3404 28.0366 60.0709 28.2298 59.7713 28.3644C59.4718 28.499 59.1483 28.5723 58.82 28.5799ZM47.74 23.0599V24.8599H52.06C51.9922 25.7077 51.6398 26.5077 51.06 27.1299C50.6266 27.5714 50.1054 27.9171 49.5301 28.1444C48.9547 28.3718 48.3381 28.4759 47.72 28.4499C46.4469 28.4499 45.226 27.9442 44.3259 27.044C43.4257 26.1439 42.92 24.923 42.92 23.6499C42.92 22.3769 43.4257 21.156 44.3259 20.2558C45.226 19.3556 46.4469 18.8499 47.72 18.8499C48.9404 18.8318 50.1189 19.2952 51 20.1399L52.27 18.8699C51.674 18.2804 50.9663 17.8158 50.1884 17.5033C49.4106 17.1908 48.5782 17.0366 47.74 17.0499C46.851 17.0153 45.9641 17.1605 45.1326 17.4769C44.3011 17.7932 43.5419 18.2742 42.9007 18.8909C42.2595 19.5077 41.7494 20.2475 41.401 21.0661C41.0525 21.8847 40.8729 22.7652 40.8729 23.6549C40.8729 24.5446 41.0525 25.4251 41.401 26.2437C41.7494 27.0623 42.2595 27.8022 42.9007 28.4189C43.5419 29.0357 44.3011 29.5166 45.1326 29.833C45.9641 30.1493 46.851 30.2945 47.74 30.2599C48.5954 30.2941 49.4484 30.1469 50.2429 29.8281C51.0374 29.5092 51.7555 29.0259 52.35 28.4099C53.4001 27.2563 53.9596 25.7391 53.91 24.1799C53.9136 23.8046 53.8834 23.4298 53.82 23.0599H47.74ZM93.05 24.4599C92.7892 23.6927 92.3015 23.0227 91.6515 22.5388C91.0015 22.0548 90.2198 21.7797 89.41 21.7499C88.863 21.7489 88.3216 21.86 87.8192 22.0765C87.3169 22.2929 86.8643 22.6101 86.4894 23.0085C86.1145 23.4068 85.8252 23.8778 85.6396 24.3923C85.4539 24.9068 85.3758 25.454 85.41 25.9999C85.4014 26.9128 85.6884 27.8039 86.2281 28.5402C86.7678 29.2765 87.5312 29.8184 88.4042 30.0851C89.2773 30.3517 90.2132 30.3288 91.0722 30.0196C91.9311 29.7105 92.667 29.1318 93.17 28.3699L91.72 27.3699C91.5038 27.7302 91.1972 28.0277 90.8306 28.2329C90.464 28.4382 90.0501 28.544 89.63 28.5399C89.1965 28.5578 88.7678 28.4442 88.4002 28.214C88.0325 27.9837 87.7431 27.6477 87.57 27.2499L93.26 24.8999L93.05 24.4599ZM87.25 25.8799C87.2297 25.5693 87.2716 25.2578 87.3733 24.9635C87.4749 24.6693 87.6342 24.3983 87.8419 24.1664C88.0495 23.9346 88.3014 23.7464 88.5827 23.6131C88.8639 23.4798 89.169 23.4039 89.48 23.3899C89.8022 23.3703 90.123 23.4461 90.4023 23.608C90.6816 23.7699 90.9069 24.0106 91.05 24.2999L87.25 25.8799ZM82.63 29.9999H84.5V17.4999H82.63V29.9999ZM79.57 22.6999H79.5C79.2206 22.3818 78.8759 22.1277 78.4893 21.9551C78.1027 21.7825 77.6833 21.6955 77.26 21.6999C76.1672 21.7529 75.1366 22.2243 74.382 23.0165C73.6273 23.8087 73.2063 24.8608 73.2063 25.9549C73.2063 27.049 73.6273 28.1012 74.382 28.8933C75.1366 29.6855 76.1672 30.1569 77.26 30.2099C77.6839 30.2184 78.1046 30.1332 78.4918 29.9603C78.879 29.7875 79.2233 29.5312 79.5 29.2099H79.57V29.8199C79.57 31.4499 78.7 32.3199 77.3 32.3199C76.8323 32.3096 76.3782 32.1606 75.9954 31.8918C75.6126 31.6229 75.3183 31.2464 75.15 30.8099L73.53 31.4799C73.8295 32.2322 74.3502 32.8758 75.0234 33.3258C75.6965 33.7757 76.4904 34.0108 77.3 33.9999C79.49 33.9999 81.3 32.7099 81.3 29.5699V21.9999H79.57V22.6999ZM77.42 28.5799C76.7648 28.5391 76.1498 28.25 75.7003 27.7716C75.2508 27.2932 75.0005 26.6614 75.0005 26.0049C75.0005 25.3485 75.2508 24.7167 75.7003 24.2383C76.1498 23.7598 76.7648 23.4708 77.42 23.4299C77.7402 23.4437 78.0544 23.5218 78.3438 23.6596C78.6333 23.7973 78.8921 23.9918 79.1048 24.2316C79.3175 24.4714 79.4798 24.7515 79.5821 25.0553C79.6843 25.3591 79.7244 25.6803 79.7 25.9999C79.7273 26.3206 79.6892 26.6435 79.5881 26.9491C79.4871 27.2546 79.3251 27.5365 79.1119 27.7777C78.8988 28.0189 78.639 28.2143 78.3482 28.3522C78.0574 28.4901 77.7416 28.5676 77.42 28.5799ZM101.81 17.4999H97.33V29.9999H99.2V25.2599H101.81C102.343 25.2982 102.878 25.2263 103.382 25.0487C103.886 24.871 104.348 24.5915 104.739 24.2274C105.13 23.8634 105.442 23.4227 105.655 22.9328C105.869 22.4428 105.979 21.9142 105.979 21.3799C105.979 20.8456 105.869 20.317 105.655 19.8271C105.442 19.3372 105.13 18.8965 104.739 18.5324C104.348 18.1684 103.886 17.8888 103.382 17.7112C102.878 17.5336 102.343 17.4616 101.81 17.4999ZM101.81 23.4999H99.2V19.2399H101.85C102.131 19.2399 102.409 19.2953 102.669 19.4028C102.929 19.5104 103.164 19.668 103.363 19.8667C103.562 20.0654 103.72 20.3013 103.827 20.561C103.935 20.8206 103.99 21.0989 103.99 21.3799C103.99 21.661 103.935 21.9392 103.827 22.1989C103.72 22.4585 103.562 22.6944 103.363 22.8931C103.164 23.0918 102.929 23.2495 102.669 23.357C102.409 23.4646 102.131 23.5199 101.85 23.5199L101.81 23.4999ZM113.35 21.7099C112.669 21.6679 111.991 21.8265 111.399 22.1659C110.807 22.5054 110.328 23.0109 110.02 23.6199L111.67 24.3099C111.837 24.0093 112.087 23.7634 112.39 23.602C112.694 23.4405 113.038 23.3703 113.38 23.3999C113.617 23.3722 113.858 23.392 114.088 23.4582C114.317 23.5245 114.531 23.6358 114.718 23.7856C114.904 23.9355 115.058 24.1209 115.172 24.3311C115.286 24.5413 115.356 24.7721 115.38 25.0099V25.1299C114.779 24.8138 114.109 24.6491 113.43 24.6499C111.65 24.6499 109.83 25.6499 109.83 27.4699C109.848 27.8568 109.943 28.2361 110.11 28.5855C110.277 28.9348 110.513 29.247 110.803 29.5035C111.093 29.7601 111.431 29.9557 111.799 30.0787C112.166 30.2018 112.554 30.2498 112.94 30.2199C113.409 30.2459 113.877 30.1466 114.295 29.9322C114.713 29.7178 115.067 29.3961 115.32 28.9999H115.38V29.9999H117.18V25.1899C117.18 22.9999 115.52 21.7299 113.39 21.7299L113.35 21.7099ZM113.12 28.5599C112.51 28.5599 111.66 28.2499 111.66 27.4999C111.66 26.4999 112.72 26.1599 113.66 26.1599C114.254 26.1453 114.841 26.2903 115.36 26.5799C115.297 27.123 115.04 27.6249 114.635 27.9926C114.231 28.3604 113.707 28.569 113.16 28.5799L113.12 28.5599ZM123.74 21.9999L121.6 27.4199H121.54L119.32 21.9999H117.32L120.65 29.5799L118.75 33.7899H120.7L125.82 21.9999H123.74ZM106.94 29.9999H108.8V17.4999H106.94V29.9999Z" fill="white"/>
<path d="M20.7199 19.4199L10.0699 30.7199C10.1863 31.1473 10.3993 31.5423 10.6926 31.8742C10.9858 32.2062 11.3515 32.4663 11.7613 32.6345C12.1711 32.8026 12.614 32.8744 13.056 32.8441C13.4979 32.8138 13.9269 32.6824 14.3099 32.4599L26.3099 25.5399L20.7199 19.4199Z" fill="#EA4335"/>
<path d="M31.49 17.5L26.31 14.5L20.49 19.69L26.33 25.54L31.48 22.54C31.9378 22.2948 32.3205 21.93 32.5873 21.4845C32.8541 21.0389 32.995 20.5293 32.995 20.01C32.995 19.4907 32.8541 18.9811 32.5873 18.5355C32.3205 18.09 31.9378 17.7252 31.48 17.48L31.49 17.5Z" fill="#FBBC04"/>
<path d="M10.07 9.28027C10.0172 9.51648 9.99366 9.75831 10 10.0003V30.0003C10.0018 30.2502 10.0354 30.4989 10.1 30.7403L21.1 19.7403L10.07 9.28027Z" fill="#4285F4"/>
<path d="M20.8 19.9996L26.31 14.4896L14.31 7.54965C13.8592 7.28165 13.3445 7.14002 12.82 7.13965C12.1874 7.14146 11.5728 7.35082 11.0706 7.73558C10.5685 8.12035 10.2064 8.65927 10.04 9.26965L20.8 19.9996Z" fill="#34A853"/>
</svg>
