<svg width="64" height="64" viewBox="0 0 64 64" fill="none" xmlns="http://www.w3.org/2000/svg">
<path d="M17.9875 10.6665H46.1685C46.1685 10.6665 43.8202 46.0188 32.0781 46.0188C26.342 46.0188 22.8476 37.5825 20.7736 28.9521C18.6019 19.9157 17.9875 10.6665 17.9875 10.6665Z" stroke="#78350F" stroke-width="1.5" stroke-linecap="round" stroke-linejoin="round"/>
<path d="M46.1685 10.6664C46.1685 10.6664 48.6251 8.04598 50.6667 7.99974C54.6667 7.90918 55.4061 10.6664 55.4061 10.6664C56.1891 12.2918 56.8152 16.5179 53.0579 20.4188C49.3003 24.3198 45.0941 27.7331 43.3824 28.952" stroke="#78350F" stroke-width="1.5" stroke-linecap="round" stroke-linejoin="round"/>
<path d="M17.9874 10.6669C17.9874 10.6669 15.4279 8.01662 13.3332 8.00027C9.33321 7.96904 8.59371 10.6669 8.59371 10.6669C7.81089 12.2923 7.18465 16.5183 10.9421 20.4193C14.6996 24.3203 19.062 27.7336 20.7734 28.9528" stroke="#78350F" stroke-width="1.5" stroke-linecap="round" stroke-linejoin="round"/>
<path d="M22.6843 53.3334C22.6843 48.4572 32.0779 46.019 32.0779 46.019C32.0779 46.019 41.4717 48.4572 41.4717 53.3334H22.6843Z" stroke="#78350F" stroke-width="1.5" stroke-linecap="round" stroke-linejoin="round"/>
</svg>
