<svg width="24" height="24" viewBox="0 0 24 24" fill="none" xmlns="http://www.w3.org/2000/svg">
<path d="M6 6.386V10C6.00014 11.2854 6.27502 12.556 6.80622 13.7265C7.33741 14.897 8.11266 15.9405 9.08 16.787L12 19.342L14.92 16.787C15.8874 15.9405 16.6627 14.8971 17.1939 13.7265C17.7251 12.556 17.9999 11.2854 18 10V6.386L12 4.136L6 6.386ZM4.649 4.756L12 2L19.351 4.757C19.5416 4.82844 19.7058 4.95632 19.8218 5.12357C19.9377 5.29082 19.9999 5.48948 20 5.693V10C20 13.177 18.628 16.2 16.237 18.293L12 22L7.763 18.293C6.58096 17.2587 5.63369 15.9837 4.98469 14.5534C4.33569 13.1231 3.99996 11.5706 4 10V5.693C4.00008 5.48948 4.06225 5.29082 4.17822 5.12357C4.29419 4.95632 4.45843 4.82844 4.649 4.757V4.756ZM10.939 12.268L14.475 8.732C14.6636 8.54984 14.9162 8.44905 15.1784 8.45133C15.4406 8.4536 15.6914 8.55877 15.8768 8.74418C16.0622 8.92959 16.1674 9.1804 16.1697 9.4426C16.172 9.7048 16.0712 9.9574 15.889 10.146L11.646 14.39C11.4585 14.5775 11.2042 14.6828 10.939 14.6828C10.6738 14.6828 10.4195 14.5775 10.232 14.39L8.111 12.269C7.92884 12.0804 7.82805 11.8278 7.83033 11.5656C7.8326 11.3034 7.93777 11.0526 8.12318 10.8672C8.30859 10.6818 8.5594 10.5766 8.8216 10.5743C9.0838 10.572 9.3364 10.6728 9.525 10.855L10.939 12.269V12.268Z" fill="#0F172A"/>
</svg>
